<svg xmlns="http://www.w3.org/2000/svg" id="Layer_2" data-name="Layer 2" viewBox="0 0 627.43 339.81"><defs><style>      .cls-1 {        fill: #231f20;      }      .cls-2 {        fill: #6fb9e1;      }    </style></defs><g id="Layer_1-2" data-name="Layer 1"><g><path class="cls-1" d="m17.63,242.2H0V56.72c14.82-4.6,29.38-6.9,43.69-6.9,10.39,0,19.84,1.62,28.36,4.85,8.51,3.24,15.8,7.75,21.84,13.54,6.04,5.79,10.69,12.69,13.92,20.69,3.23,8.01,4.86,16.69,4.86,26.06,0,11.41-1.96,21.2-5.88,29.38-3.92,8.17-9.07,14.9-15.46,20.18-6.39,5.28-13.67,9.16-21.85,11.63-8.18,2.47-16.52,3.7-25.04,3.7-4.6,0-9.12-.35-13.54-1.02-4.43-.68-8.86-1.62-13.28-2.81v66.17Zm74.86-127.49c0-14.81-4.14-26.78-12.39-35.89-8.26-9.11-19.89-13.67-34.87-13.67-4.77,0-9.45.3-14.05.89-4.6.6-9.12,1.66-13.54,3.19v90.44c4.09,1.37,8.3,2.52,12.65,3.45,4.34.94,8.55,1.4,12.64,1.4,15.16,0,27.21-4.3,36.15-12.9,8.94-8.59,13.42-20.91,13.42-36.92Z"></path><path class="cls-1" d="m148.44,178.84V0h17.88v178.84h-17.88Z"></path><path class="cls-1" d="m312.46,160.19c-5.97,6.48-12.86,11.37-20.7,14.69-7.84,3.33-17.29,4.98-28.36,4.98-10.22,0-19.16-1.74-26.83-5.24-7.66-3.49-14.05-8.21-19.16-14.18-5.11-5.96-8.94-12.77-11.5-20.44-2.55-7.66-3.83-15.75-3.83-24.27,0-11.24,1.53-20.99,4.6-29.25,3.06-8.26,7.24-15.12,12.52-20.57,5.28-5.45,11.41-9.49,18.4-12.14,6.98-2.64,14.39-3.96,22.22-3.96,18.74,0,32.87,5.75,42.41,17.25,9.53,11.5,14.14,28.23,13.8,50.2h-95.81c.51,14.48,4.68,25.98,12.52,34.49,7.83,8.52,18.48,12.77,31.94,12.77,7.49,0,14.31-1.23,20.44-3.7,6.13-2.47,11.66-6.42,16.61-11.88l10.73,11.24Zm-14.31-57.99c0-5.28-.82-10.22-2.43-14.82-1.63-4.6-3.92-8.52-6.9-11.75-2.98-3.23-6.86-5.83-11.63-7.79-4.77-1.96-10.31-2.94-16.61-2.94s-12.05.98-16.73,2.94c-4.69,1.96-8.39,4.47-11.11,7.53-2.73,3.07-5.24,6.94-7.54,11.62-2.3,4.69-3.79,9.75-4.47,15.21h77.42Z"></path><path class="cls-1" d="m433.07,81.24c-4.46-5.62-9.28-9.75-14.46-12.39-5.18-2.64-11.33-3.96-18.46-3.96-9.1,0-15.48,1.62-19.13,4.85-3.66,3.24-5.48,7.33-5.48,12.26,0,3.41.84,6.31,2.54,8.69,1.69,2.39,3.92,4.43,6.69,6.13,2.76,1.71,5.98,3.2,9.64,4.47,3.65,1.28,7.44,2.52,11.37,3.71,4.81,1.53,9.63,3.19,14.45,4.98,4.82,1.79,9.24,4.13,13.25,7.02,4.01,2.9,7.27,6.43,9.77,10.6,2.49,4.18,3.74,9.41,3.74,15.71,0,5.8-1.25,10.99-3.74,15.59-2.5,4.6-5.89,8.47-10.17,11.62-4.28,3.16-9.33,5.54-15.13,7.15-5.8,1.62-12.01,2.43-18.6,2.43-10.16,0-19.18-1.66-27.03-4.98-7.85-3.32-15.25-8.82-22.21-16.48l13.91-12.26c9.28,11.93,21.32,17.89,36.13,17.89,9.63,0,16.77-1.8,21.41-5.37,4.64-3.58,6.96-7.92,6.96-13.03,0-3.91-.85-7.19-2.54-9.84-1.7-2.64-4.01-4.9-6.96-6.77-2.94-1.87-6.33-3.45-10.17-4.72-3.84-1.28-7.88-2.51-12.17-3.7-4.82-1.36-9.6-2.9-14.32-4.6-4.73-1.7-8.97-3.87-12.71-6.52-3.75-2.64-6.83-6-9.24-10.09-2.41-4.09-3.61-9.28-3.61-15.58,0-11.24,4.1-19.93,12.31-26.06,8.2-6.14,18.82-9.2,31.86-9.2,9.27,0,17.52,1.53,24.75,4.6,7.23,3.07,14.14,8.43,20.74,16.1l-13.12,12.01-.26-.26Z"></path><path class="cls-1" d="m480.56,178.84V.25h17.88v178.58h-17.88Zm17.88-65.91l61.32-61.83h24.02l-62.85,61.32,62.59,66.42h-24.78l-60.3-65.91Z"></path><path class="cls-2" d="m210.66,242.2h-107.61v-16.83h107.61v16.83Z"></path><path class="cls-1" d="m615.13,75.49c-2.18,0-4.2-.52-6.06-1.58-1.86-1.05-3.37-2.52-4.52-4.4-1.15-1.89-1.72-4-1.72-6.33,0-2.21.52-4.24,1.55-6.09,1.03-1.85,2.5-3.34,4.4-4.49,1.9-1.14,4.02-1.72,6.35-1.72s4.26.52,6.12,1.57c1.87,1.05,3.36,2.52,4.49,4.4,1.12,1.89,1.69,4,1.69,6.33,0,2.18-.53,4.2-1.58,6.06-1.05,1.87-2.52,3.37-4.4,4.52-1.88,1.14-3.99,1.72-6.33,1.72Zm0-2.15c1.79,0,3.44-.43,4.96-1.29,1.51-.85,2.74-2.06,3.67-3.62.93-1.55,1.4-3.3,1.4-5.25,0-1.82-.43-3.51-1.29-5.04-.85-1.54-2.05-2.77-3.58-3.71-1.54-.93-3.26-1.4-5.16-1.4-1.79,0-3.44.43-4.95,1.29-1.52.85-2.74,2.06-3.67,3.62-.93,1.55-1.4,3.3-1.4,5.24,0,1.83.43,3.51,1.28,5.04.85,1.54,2.05,2.77,3.59,3.71,1.53.93,3.26,1.4,5.16,1.4Zm-4.14-16.33h3.96c1.44,0,2.57.33,3.38.99s1.22,1.58,1.22,2.74c0,1.63-.7,2.76-2.1,3.38l2.91,4.66h-2.45l-2.57-4.26h-2.27v4.26h-2.1v-11.78Zm2.1,5.66h1.63c.93,0,1.6-.15,2.01-.44.41-.29.61-.79.61-1.49,0-1.24-.85-1.86-2.57-1.86h-1.69v3.79Z"></path><g><g><path class="cls-1" d="m344.43,316.82c-.75-.75-1.72-1.2-2.76-1.31-.15-.01-.31-.02-.46-.02-.16,0-.31,0-.46.02-1.04.11-2.01.56-2.76,1.31-1.78,1.78-1.78,4.67,0,6.44.86.86,2.01,1.33,3.22,1.33s2.36-.47,3.22-1.33c1.78-1.78,1.78-4.67,0-6.44"></path><path class="cls-1" d="m370.02,295.77c0-1.17-.44-2.33-1.33-3.22-.86-.86-2.01-1.33-3.22-1.33s-2.36.47-3.22,1.33c-.42.42-.74.91-.97,1.43-.24.57-.37,1.18-.37,1.79,0,1.17.44,2.33,1.33,3.22.82.82,1.9,1.29,3.06,1.33.05,0,.1,0,.16,0,.05,0,.11,0,.16,0,1.15-.04,2.24-.51,3.06-1.33.89-.89,1.33-2.06,1.33-3.22"></path><path class="cls-1" d="m368.69,323.27c1.89-1.89,1.7-5.11-.38-6.77-.51-.41-1.1-.71-1.73-.87-.57-.14-1.15-.13-1.73-.17-1.4-.11-2.72-.58-3.85-1.41-1.17-.86-2.09-2.04-2.61-3.4-.25-.65-.4-1.32-.46-2.01-.05-.58-.03-1.17-.17-1.74-.22-.93-.72-1.78-1.44-2.41-.87-.76-1.92-1.09-3.05-1.13-1.38-.05-2.7-.37-3.89-1.1-1.18-.72-2.15-1.76-2.79-2.99-.33-.64-.56-1.33-.71-2.04-.11-.58-.1-1.19-.15-1.78-.09-1.24-.71-2.45-1.69-3.22-2.13-1.68-5.33-1.15-6.75,1.18-1.4,2.3-.43,5.42,2.02,6.52,1.22.56,2.58.32,3.86.67,1.34.37,2.57,1.1,3.53,2.11.96,1.01,1.62,2.29,1.9,3.65.25,1.19.07,2.41.62,3.54.22.46.52.89.88,1.25.47.48,1.07.85,1.7,1.06.79.28,1.59.22,2.41.32,1.83.21,3.55,1.1,4.77,2.47,1.22,1.37,1.9,3.15,1.92,4.99.02,1.77.97,3.4,2.58,4.17,1.73.83,3.84.47,5.19-.88"></path><path class="cls-1" d="m369.04,310.96c1.56-1.56,1.78-4.12.46-5.9-.6-.81-1.45-1.42-2.44-1.7-1.01-.28-2.08-.14-3.1-.39-2.28-.58-4.21-2.22-5.13-4.39-.44-1.04-.54-2.09-.6-3.21-.06-1.09-.51-2.12-1.26-2.91-1.45-1.56-3.91-1.82-5.7-.71-1.87,1.15-2.62,3.55-1.81,5.58.4.99,1.16,1.81,2.1,2.31.48.26,1.01.42,1.54.49.55.07,1.12.03,1.67.11,2.31.33,4.39,1.75,5.53,3.79.54.97.87,2.05.95,3.16.04.59.02,1.15.17,1.73.13.5.35.99.65,1.4,1.24,1.76,3.57,2.46,5.56,1.6.53-.23,1.01-.56,1.41-.96"></path><polygon class="cls-1" points="70.53 292.35 79.68 292.34 85.57 314.36 92.36 292.33 99.75 292.32 106.9 314.4 112.81 292.31 121.83 292.3 111.19 324.43 103.25 324.44 95.97 303.24 89.05 324.45 81.22 324.46 70.53 292.35"></polygon><path class="cls-1" d="m145.51,304.9c-.21-2.22-.94-3.94-2.18-5.13-1.24-1.2-2.9-1.8-4.95-1.79-2.02,0-3.69.6-4.99,1.8-1.3,1.2-2.14,2.92-2.52,5.14h14.64Zm-4.59,20.52c-3.74,0-7.01-.67-9.81-2.01-2.8-1.35-4.98-3.31-6.54-5.9-1.56-2.58-2.34-5.62-2.35-9.11,0-3.24.67-6.15,2.01-8.74,1.35-2.58,3.26-4.63,5.74-6.13,2.47-1.49,5.36-2.24,8.64-2.24,3.03,0,5.69.63,7.99,1.92,2.29,1.28,4.08,3.12,5.36,5.52,1.29,2.4,1.93,5.24,1.94,8.52,0,1.38-.1,2.65-.31,3.79h-22.65c1.1,4.81,4.74,7.2,10.92,7.2,1.94,0,3.81-.2,5.65-.6,1.83-.4,3.48-.98,4.95-1.74l.88,6.88c-1.51.84-3.36,1.49-5.55,1.96-2.19.46-4.48.7-6.88.7"></path><path class="cls-1" d="m176.12,317.56c2.53,0,4.58-.87,6.15-2.59,1.57-1.73,2.36-3.94,2.36-6.63s-.8-4.96-2.4-6.69c-1.6-1.72-3.64-2.58-6.12-2.58-2.49,0-4.53.87-6.12,2.59-1.6,1.72-2.4,3.95-2.39,6.69,0,2.69.79,4.9,2.37,6.62,1.58,1.72,3.63,2.58,6.15,2.58m1.96,7.83c-2.23,0-4.24-.45-6.02-1.35-1.79-.9-3.19-2.17-4.2-3.81l-.13,4.17h-8.39s-.04-51.11-.04-51.11h8.77s.02,22.77.02,22.77c2.31-3.2,5.78-4.8,10.41-4.81,2.81,0,5.35.69,7.6,2.08,2.26,1.39,4.03,3.38,5.34,5.96,1.31,2.59,1.96,5.56,1.96,8.93,0,3.11-.63,5.96-1.92,8.55-1.28,2.59-3.1,4.67-5.45,6.26-2.35,1.58-5.01,2.37-7.95,2.37"></path><path class="cls-1" d="m214.28,317.53c2.53,0,4.58-.87,6.15-2.6,1.58-1.72,2.36-3.93,2.36-6.62s-.8-4.97-2.4-6.69c-1.6-1.72-3.64-2.58-6.12-2.58-2.49,0-4.53.87-6.12,2.6-1.6,1.72-2.39,3.95-2.39,6.69s.79,4.9,2.37,6.62c1.58,1.72,3.63,2.58,6.15,2.58m-16.81-25.29h8.39s.13,4.16.13,4.16c2.18-3.45,5.74-5.18,10.66-5.19,2.82,0,5.35.69,7.61,2.08,2.25,1.38,4.03,3.37,5.33,5.96,1.31,2.58,1.96,5.56,1.96,8.93,0,3.11-.63,5.96-1.92,8.55-1.28,2.59-3.1,4.67-5.45,6.25-2.35,1.58-5.01,2.37-7.95,2.38-2.14,0-4.08-.41-5.81-1.23-1.72-.81-3.11-1.99-4.17-3.5l.02,19.18h-8.77s-.04-47.57-.04-47.57Z"></path><path class="cls-1" d="m235.9,292.21h8.46s.06,5.29.06,5.29c.88-1.89,2.06-3.35,3.56-4.36,1.49-1.01,3.23-1.52,5.21-1.52,1.35,0,2.58.23,3.72.69l-.76,8.27c-1.3-.51-2.61-.76-3.91-.76-2.4,0-4.26.87-5.58,2.6-1.33,1.72-1.99,4.14-1.98,7.26v14.64s-8.76,0-8.76,0l-.03-32.12Z"></path><path class="cls-1" d="m275.36,317.48c2.48,0,4.53-.87,6.12-2.59,1.6-1.72,2.39-3.95,2.39-6.69s-.79-4.9-2.37-6.63c-1.58-1.72-3.63-2.58-6.15-2.58-2.53,0-4.58.87-6.15,2.59-1.58,1.72-2.37,3.94-2.36,6.63,0,2.74.8,4.96,2.4,6.69,1.6,1.73,3.64,2.59,6.12,2.58m0,7.83c-3.15,0-6.05-.71-8.68-2.14-2.63-1.42-4.72-3.44-6.28-6.05-1.56-2.61-2.34-5.57-2.35-8.9,0-3.07.72-5.9,2.17-8.49,1.45-2.59,3.51-4.67,6.15-6.22,2.65-1.56,5.63-2.34,8.96-2.34,3.15,0,6.04.7,8.68,2.1,2.63,1.41,4.72,3.42,6.28,6.02,1.56,2.61,2.34,5.57,2.34,8.9,0,3.11-.72,5.96-2.17,8.55-1.45,2.59-3.5,4.66-6.15,6.22-2.65,1.56-5.64,2.34-8.96,2.34"></path><path class="cls-1" d="m307.86,325.28c-2.44,0-4.76-.28-6.94-.85-2.19-.56-3.87-1.31-5.05-2.24l1.06-7.13c1.44.97,3.11,1.74,5.02,2.33,1.92.59,3.76.88,5.52.88,3.58,0,5.36-.91,5.36-2.72,0-.97-.38-1.7-1.13-2.2-.76-.51-2.34-1.1-4.74-1.76-3.79-1.05-6.49-2.38-8.11-4-1.62-1.62-2.44-3.79-2.44-6.53,0-3.07,1.15-5.49,3.46-7.26,2.31-1.77,5.49-2.65,9.53-2.66,1.97,0,3.95.23,5.93.69,1.98.46,3.6,1.07,4.86,1.83l-1.01,6.94c-1.31-.76-2.81-1.35-4.51-1.79-1.7-.44-3.34-.66-4.89-.66-3.07,0-4.61.83-4.61,2.47,0,.92.37,1.65,1.11,2.17.74.53,2.2,1.1,4.38,1.73,4.04,1.18,6.89,2.56,8.56,4.16,1.66,1.6,2.49,3.81,2.5,6.63,0,3.11-1.23,5.55-3.69,7.32-2.45,1.77-5.85,2.65-10.18,2.66"></path><path class="cls-1" d="m328.31,291.11h.6c.35,0,.6-.06.75-.17.15-.11.22-.29.22-.55,0-.46-.31-.69-.95-.69h-.63v1.4Zm-.78-2.1h1.47c.53,0,.95.12,1.25.37.3.24.46.58.46,1.01,0,.61-.26,1.03-.78,1.26l1.08,1.72h-.9l-.96-1.58h-.84v1.58h-.78v-4.36Zm1.53,6.04c.66,0,1.27-.16,1.83-.48.56-.31,1.01-.76,1.36-1.33.35-.58.52-1.22.52-1.94,0-.67-.16-1.3-.47-1.87-.31-.57-.76-1.03-1.33-1.37-.57-.35-1.2-.52-1.91-.52-.66,0-1.28.16-1.83.47-.56.32-1.01.76-1.36,1.34s-.52,1.22-.52,1.94c0,.67.16,1.29.47,1.87.31.57.76,1.03,1.33,1.37.57.35,1.2.52,1.91.52m0,.79c-.81,0-1.55-.19-2.24-.58-.69-.38-1.25-.93-1.67-1.63-.42-.7-.63-1.47-.63-2.34,0-.82.19-1.57.57-2.26.38-.69.92-1.24,1.63-1.66.71-.42,1.49-.63,2.35-.63.82,0,1.58.19,2.26.58.69.39,1.25.94,1.67,1.63.41.7.62,1.47.62,2.34,0,.8-.19,1.55-.58,2.24-.38.69-.93,1.25-1.63,1.67-.7.42-1.47.63-2.34.63"></path></g><g><path class="cls-1" d="m410.23,324.52h-4.99v-44.37h4.99v17.1c2.79-3.77,6.41-5.65,10.84-5.65s7.65,1.54,10.31,4.62c2.66,3.08,3.99,7.17,3.99,12.27s-1.32,9.24-3.96,12.27c-2.64,3.04-6.09,4.56-10.34,4.56-4.48,0-8.09-1.86-10.84-5.59v4.79Zm0-8.72c.89,1.42,2.23,2.62,4.02,3.59,1.8.98,3.65,1.46,5.56,1.46,3.19,0,5.72-1.15,7.58-3.46,1.86-2.31,2.79-5.28,2.79-8.92s-.93-6.62-2.79-8.95c-1.86-2.33-4.39-3.49-7.58-3.49-1.91,0-3.76.5-5.56,1.5-1.8,1-3.14,2.23-4.02,3.69v14.57Z"></path><path class="cls-1" d="m448.48,324.52h-4.99v-32.13h4.99v5.19c2.97-3.9,6.54-5.85,10.71-5.85v5.12c-.62-.13-1.29-.2-2-.2-1.51,0-3.15.53-4.92,1.6-1.77,1.06-3.04,2.24-3.79,3.53v22.75Z"></path><path class="cls-1" d="m490.52,324.52h-4.99v-3.66c-2.71,2.97-6.25,4.46-10.64,4.46-2.97,0-5.59-.95-7.85-2.86-2.26-1.91-3.39-4.5-3.39-7.78s1.12-5.98,3.36-7.82c2.24-1.84,4.87-2.76,7.88-2.76,4.57,0,8.12,1.46,10.64,4.39v-5.79c0-2.13-.75-3.79-2.26-4.99-1.51-1.2-3.46-1.8-5.85-1.8-3.77,0-7.05,1.49-9.85,4.46l-2.33-3.46c3.41-3.55,7.69-5.32,12.84-5.32,3.68,0,6.67.89,8.98,2.66,2.31,1.77,3.46,4.5,3.46,8.18v22.09Zm-13.84-2.79c3.99,0,6.94-1.33,8.85-3.99v-6.05c-1.91-2.66-4.86-3.99-8.85-3.99-2.31,0-4.2.66-5.69,1.96-1.49,1.31-2.23,3-2.23,5.09s.74,3.71,2.23,5.02c1.49,1.31,3.38,1.96,5.69,1.96Z"></path><path class="cls-1" d="m527.18,324.52h-4.99v-21.02c0-2.7-.62-4.62-1.86-5.75-1.24-1.13-3.02-1.7-5.32-1.7-1.86,0-3.67.49-5.42,1.46-1.75.98-3.12,2.15-4.09,3.53v23.48h-4.99v-32.13h4.99v4.66c1.24-1.46,2.9-2.74,4.99-3.82,2.08-1.09,4.23-1.63,6.45-1.63,6.83,0,10.25,3.46,10.25,10.38v22.55Z"></path><path class="cls-1" d="m565.43,324.52h-4.99v-4.79c-2.75,3.73-6.36,5.59-10.84,5.59s-7.71-1.52-10.34-4.56c-2.64-3.04-3.96-7.13-3.96-12.27s1.32-9.19,3.96-12.27c2.64-3.08,6.09-4.62,10.34-4.62s8.05,1.89,10.84,5.65v-17.1h4.99v44.37Zm-14.64-3.66c1.95,0,3.81-.49,5.59-1.46,1.77-.97,3.13-2.17,4.06-3.59v-14.57c-.93-1.46-2.29-2.69-4.09-3.69-1.8-1-3.65-1.5-5.56-1.5-3.15,0-5.65,1.16-7.52,3.49-1.86,2.33-2.79,5.31-2.79,8.95s.93,6.61,2.79,8.92c1.86,2.31,4.37,3.46,7.52,3.46Z"></path></g><path class="cls-1" d="m43.13,323.92h-4.74v-3.47c-2.57,2.82-5.94,4.23-10.11,4.23-2.82,0-5.31-.91-7.45-2.72-2.15-1.81-3.22-4.27-3.22-7.39s1.06-5.67,3.19-7.42c2.13-1.75,4.62-2.62,7.48-2.62,4.34,0,7.71,1.39,10.11,4.17v-5.5c0-2.02-.72-3.6-2.15-4.74-1.43-1.14-3.28-1.71-5.56-1.71-3.58,0-6.7,1.41-9.35,4.23l-2.21-3.28c3.24-3.37,7.31-5.05,12.19-5.05,3.49,0,6.34.84,8.53,2.53,2.19,1.68,3.28,4.27,3.28,7.77v20.97Zm-13.14-2.65c3.79,0,6.59-1.26,8.4-3.79v-5.75c-1.81-2.53-4.61-3.79-8.4-3.79-2.19,0-3.99.62-5.4,1.86-1.41,1.24-2.12,2.85-2.12,4.83s.7,3.53,2.12,4.77c1.41,1.24,3.21,1.86,5.4,1.86Z"></path></g></g></g></svg>