<?xml version="1.0" encoding="utf-8"?>
<!-- Generator: Adobe Illustrator 22.1.0, SVG Export Plug-In . SVG Version: 6.00 Build 0)  -->
<svg version="1.1" id="Layer_2_1_" xmlns="http://www.w3.org/2000/svg" xmlns:xlink="http://www.w3.org/1999/xlink" x="0px" y="0px"
	 viewBox="0 0 90 90" style="enable-background:new 0 0 90 90;" xml:space="preserve">
<style type="text/css">
	.st0{fill:#FFFFFF;stroke:#53BCE6;stroke-width:2.5015;stroke-linecap:round;stroke-linejoin:round;stroke-miterlimit:10;}
	.st1{fill:#D5EEF7;}
	.st2{fill:none;stroke:#53BCE6;stroke-width:2.5015;stroke-linecap:round;stroke-linejoin:round;stroke-miterlimit:10;}
</style>
<g>
	<g>
		<path class="st0" d="M8.8,72.3h72.7c1.4,0,2.5-1.1,2.5-2.5V21.4c0-1.4-1.1-2.5-2.5-2.5H8.8c-1.4,0-2.5,1.1-2.5,2.5v9.1v39.4
			C6.3,71.2,7.4,72.3,8.8,72.3z"/>
	</g>
	<g>
		<path class="st1" d="M8.6,72.3h69.2c1.3,0,2.3-1,2.3-2.3V25.3c0-1.3-1-2.3-2.3-2.3H8.6c-1.3,0-2.3,1-2.3,2.3v8.3V70
			C6.2,71.3,7.3,72.3,8.6,72.3z"/>
	</g>
	<g>
		<g>
			<circle class="st2" cx="33.7" cy="33.9" r="3.8"/>
			<line class="st2" x1="37.9" y1="33.9" x2="65.2" y2="33.9"/>
			<line class="st2" x1="30" y1="33.9" x2="25.2" y2="33.9"/>
		</g>
		<g>
			<circle class="st2" cx="44.6" cy="45.1" r="3.8"/>
			<line class="st2" x1="48.7" y1="45.1" x2="65.2" y2="45.1"/>
			<line class="st2" x1="40.3" y1="45.1" x2="25.2" y2="45.1"/>
		</g>
		<g>
			<circle class="st2" cx="39.8" cy="57.3" r="3.8"/>
			<line class="st2" x1="43.6" y1="57.3" x2="65.2" y2="57.3"/>
			<line class="st2" x1="36" y1="57.3" x2="25.2" y2="57.3"/>
		</g>
	</g>
	<g>
		<path class="st2" d="M8.8,72.3h72.7c1.4,0,2.5-1.1,2.5-2.5V21.4c0-1.4-1.1-2.5-2.5-2.5H8.8c-1.4,0-2.5,1.1-2.5,2.5v9.1v39.4
			C6.3,71.2,7.4,72.3,8.8,72.3z"/>
	</g>
</g>
</svg>
