<?xml version="1.0" encoding="utf-8"?>
<!-- Generator: Adobe Illustrator 22.1.0, SVG Export Plug-In . SVG Version: 6.00 Build 0)  -->
<svg version="1.1" id="Layer_2_1_" xmlns="http://www.w3.org/2000/svg" xmlns:xlink="http://www.w3.org/1999/xlink" x="0px" y="0px"
	 viewBox="0 0 90 90" style="enable-background:new 0 0 90 90;" xml:space="preserve">
<style type="text/css">
	.st0{fill:#53BCE6;}
	.st1{fill:#D5EEF7;}
	.st2{fill:#96D7EF;}
</style>
<g>
	<path class="st0" d="M66.6,71.2H23.5c-1.2,0-2.2-1-2.2-2.2v-6.3c0-0.5,0.4-0.9,0.9-0.9s0.9,0.4,0.9,0.9v6.3c0,0.3,0.3,0.4,0.4,0.4
		h43.1c0.3,0,0.4-0.3,0.4-0.4v-6.3c0-0.5,0.4-0.9,0.9-0.9c0.5,0,0.9,0.4,0.9,0.9v6.3C68.8,70.2,67.8,71.2,66.6,71.2z"/>
	<g>
		<g>
			<g>
				<path class="st1" d="M49.5,34.2H83c0.8,0,1.3-0.7,1.3-1.3v-8.6c0-0.8-0.7-1.3-1.3-1.3H49.5c-0.8,0-1.3,0.7-1.3,1.3v8.6
					C48.2,33.6,48.7,34.2,49.5,34.2z"/>
				<g>
					<g>
						<circle class="st2" cx="55.8" cy="26.5" r="1.3"/>
						<path class="st0" d="M55.8,28.1c-0.9,0-1.6-0.7-1.6-1.6s0.7-1.6,1.6-1.6c0.9,0,1.6,0.7,1.6,1.6S56.7,28.1,55.8,28.1z
							 M55.8,25.5c-0.5,0-1,0.4-1,1c0,0.5,0.4,1,1,1c0.5,0,1-0.4,1-1C56.7,26,56.3,25.5,55.8,25.5z"/>
					</g>
					<g>
						<circle class="st2" cx="59.9" cy="26.5" r="1.3"/>
						<path class="st0" d="M59.9,28.1c-0.9,0-1.6-0.7-1.6-1.6s0.7-1.6,1.6-1.6c0.9,0,1.6,0.7,1.6,1.6S60.8,28.1,59.9,28.1z
							 M59.9,25.5c-0.5,0-1,0.4-1,1c0,0.5,0.4,1,1,1c0.5,0,1-0.4,1-1C60.9,26,60.4,25.5,59.9,25.5z"/>
					</g>
					<g>
						<circle class="st2" cx="64.3" cy="26.5" r="1.3"/>
						<path class="st0" d="M64.3,28.1c-0.9,0-1.6-0.7-1.6-1.6s0.7-1.6,1.6-1.6c0.9,0,1.6,0.7,1.6,1.6S65.2,28.1,64.3,28.1z
							 M64.3,25.5c-0.5,0-1,0.4-1,1c0,0.5,0.4,1,1,1c0.5,0,1-0.4,1-1C65.3,26,64.9,25.5,64.3,25.5z"/>
					</g>
				</g>
				<path class="st2" d="M67.1,33.8v-3c0-0.7-0.5-1.3-1.3-1.3H54.4c-0.7,0-1.3,0.5-1.3,1.3v3H67.1z"/>
				<g>
					<circle class="st0" cx="71.9" cy="27.1" r="1"/>
					<circle class="st0" cx="71.9" cy="29.9" r="1"/>
					<circle class="st0" cx="74.5" cy="27.1" r="1"/>
					<circle class="st0" cx="74.5" cy="29.9" r="1"/>
					<circle class="st0" cx="77.1" cy="27.1" r="1"/>
					<circle class="st0" cx="77.1" cy="29.9" r="1"/>
					<circle class="st0" cx="79.8" cy="27.1" r="1"/>
					<circle class="st0" cx="79.8" cy="29.9" r="1"/>
				</g>
			</g>
			<path class="st0" d="M85.6,35.2H49.4c-1.4,0-2.6-1.1-2.6-2.6V22.3c0-1.4,1.1-2.6,2.6-2.6h36.3c1.4,0,2.6,1.1,2.6,2.6v10.4
				C88.2,34.1,87,35.2,85.6,35.2z M49.4,21.4c-0.5,0-0.9,0.4-0.9,0.9v10.4c0,0.5,0.4,0.9,0.9,0.9h36.3c0.5,0,0.9-0.4,0.9-0.9V22.3
				c0-0.5-0.4-0.9-0.9-0.9H49.4z"/>
		</g>
		<g>
			<g>
				<path class="st1" d="M49.5,48.2H83c0.8,0,1.3-0.7,1.3-1.3v-8.6c0-0.8-0.7-1.3-1.3-1.3H49.5c-0.8,0-1.3,0.7-1.3,1.3v8.6
					C48.2,47.7,48.7,48.2,49.5,48.2z"/>
				<g>
					<g>
						<circle class="st2" cx="55.8" cy="40.6" r="1.3"/>
						<path class="st0" d="M55.8,42.3c-0.9,0-1.6-0.7-1.6-1.6s0.7-1.6,1.6-1.6c0.9,0,1.6,0.7,1.6,1.6S56.7,42.3,55.8,42.3z
							 M55.8,39.6c-0.5,0-1,0.4-1,1s0.4,1,1,1c0.5,0,1-0.4,1-1S56.3,39.6,55.8,39.6z"/>
					</g>
					<g>
						<circle class="st2" cx="59.9" cy="40.6" r="1.3"/>
						<path class="st0" d="M59.9,42.3c-0.9,0-1.6-0.7-1.6-1.6S59,39,59.9,39c0.9,0,1.6,0.7,1.6,1.6S60.8,42.3,59.9,42.3z M59.9,39.6
							c-0.5,0-1,0.4-1,1s0.4,1,1,1c0.5,0,1-0.4,1-1S60.4,39.6,59.9,39.6z"/>
					</g>
					<g>
						<circle class="st2" cx="64.3" cy="40.6" r="1.3"/>
						<path class="st0" d="M64.3,42.3c-0.9,0-1.6-0.7-1.6-1.6s0.7-1.6,1.6-1.6c0.9,0,1.6,0.7,1.6,1.6S65.2,42.3,64.3,42.3z
							 M64.3,39.6c-0.5,0-1,0.4-1,1s0.4,1,1,1c0.5,0,1-0.4,1-1S64.9,39.6,64.3,39.6z"/>
					</g>
				</g>
				<path class="st2" d="M67.1,47.8v-3c0-0.7-0.5-1.3-1.3-1.3H54.4c-0.7,0-1.3,0.5-1.3,1.3v3H67.1z"/>
				<g>
					<circle class="st0" cx="71.9" cy="41.1" r="1"/>
					<circle class="st0" cx="71.9" cy="43.9" r="1"/>
					<circle class="st0" cx="74.5" cy="41.1" r="1"/>
					<circle class="st0" cx="74.5" cy="43.9" r="1"/>
					<circle class="st0" cx="77.1" cy="41.1" r="1"/>
					<circle class="st0" cx="77.1" cy="43.9" r="1"/>
					<circle class="st0" cx="79.8" cy="41.1" r="1"/>
					<circle class="st0" cx="79.8" cy="43.9" r="1"/>
				</g>
			</g>
			<path class="st0" d="M85.6,49.4H49.4c-1.5,0-2.6-1.1-2.6-2.7V36.3c0-1.4,1.1-2.6,2.6-2.6h36.3c1.4,0,2.6,1.1,2.6,2.6v10.5
				C88.2,48.2,87,49.4,85.6,49.4z M49.4,35.4c-0.5,0-0.9,0.4-0.9,0.9v10.4c0,0.6,0.4,1,0.9,1h36.3c0.5,0,0.9-0.4,0.9-0.9V36.3
				c0-0.5-0.4-0.9-0.9-0.9H49.4z"/>
		</g>
		<g>
			<g>
				<path class="st1" d="M49.5,62.2H83c0.8,0,1.3-0.7,1.3-1.3v-8.6c0-0.8-0.7-1.3-1.3-1.3H49.5c-0.8,0-1.3,0.7-1.3,1.3v8.6
					C48.2,61.6,48.7,62.2,49.5,62.2z"/>
				<g>
					<g>
						<circle class="st2" cx="55.8" cy="54.5" r="1.3"/>
						<path class="st0" d="M55.8,56.1c-0.9,0-1.6-0.7-1.6-1.6c0-0.9,0.7-1.6,1.6-1.6c0.9,0,1.6,0.7,1.6,1.6
							C57.4,55.4,56.7,56.1,55.8,56.1z M55.8,53.5c-0.5,0-1,0.4-1,1c0,0.5,0.4,1,1,1c0.5,0,1-0.4,1-1C56.7,54,56.3,53.5,55.8,53.5z"
							/>
					</g>
					<g>
						<circle class="st2" cx="59.9" cy="54.5" r="1.3"/>
						<path class="st0" d="M59.9,56.1c-0.9,0-1.6-0.7-1.6-1.6c0-0.9,0.7-1.6,1.6-1.6c0.9,0,1.6,0.7,1.6,1.6
							C61.5,55.4,60.8,56.1,59.9,56.1z M59.9,53.5c-0.5,0-1,0.4-1,1c0,0.5,0.4,1,1,1c0.5,0,1-0.4,1-1C60.9,54,60.4,53.5,59.9,53.5z"
							/>
					</g>
					<g>
						<circle class="st2" cx="64.3" cy="54.5" r="1.3"/>
						<path class="st0" d="M64.3,56.1c-0.9,0-1.6-0.7-1.6-1.6c0-0.9,0.7-1.6,1.6-1.6c0.9,0,1.6,0.7,1.6,1.6
							C66,55.4,65.2,56.1,64.3,56.1z M64.3,53.5c-0.5,0-1,0.4-1,1c0,0.5,0.4,1,1,1c0.5,0,1-0.4,1-1C65.3,54,64.9,53.5,64.3,53.5z"/>
					</g>
				</g>
				<path class="st2" d="M67.1,61.8v-3c0-0.7-0.5-1.3-1.3-1.3H54.4c-0.7,0-1.3,0.5-1.3,1.3v3H67.1z"/>
				<g>
					<circle class="st0" cx="71.9" cy="55.1" r="1"/>
					<circle class="st0" cx="71.9" cy="57.8" r="1"/>
					<circle class="st0" cx="74.5" cy="55.1" r="1"/>
					<circle class="st0" cx="74.5" cy="57.8" r="1"/>
					<circle class="st0" cx="77.1" cy="55.1" r="1"/>
					<circle class="st0" cx="77.1" cy="57.8" r="1"/>
					<circle class="st0" cx="79.8" cy="55.1" r="1"/>
					<circle class="st0" cx="79.8" cy="57.8" r="1"/>
				</g>
			</g>
			<path class="st0" d="M85.6,63.2H49.4c-1.4,0-2.6-1.1-2.6-2.6V50.3c0-1.4,1.1-2.6,2.6-2.6h36.3c1.4,0,2.6,1.1,2.6,2.6v10.4
				C88.2,62.1,87,63.2,85.6,63.2z M49.4,49.4c-0.5,0-0.9,0.4-0.9,0.9v10.4c0,0.5,0.4,0.9,0.9,0.9h36.3c0.5,0,0.9-0.4,0.9-0.9V50.3
				c0-0.5-0.4-0.9-0.9-0.9H49.4z"/>
		</g>
	</g>
	<g>
		<g>
			<g>
				<path class="st1" d="M4,34.2h33.5c0.8,0,1.3-0.7,1.3-1.3v-8.6c0-0.8-0.7-1.3-1.3-1.3H4c-0.8,0-1.3,0.5-1.3,1.3v8.6
					C2.7,33.6,3.2,34.2,4,34.2z"/>
				<g>
					<g>
						<circle class="st2" cx="10.3" cy="26.5" r="1.3"/>
						<path class="st0" d="M10.3,28.1c-0.9,0-1.6-0.7-1.6-1.6s0.7-1.6,1.6-1.6s1.6,0.7,1.6,1.6S11.2,28.1,10.3,28.1z M10.3,25.5
							c-0.5,0-1,0.4-1,1c0,0.5,0.4,1,1,1s1-0.4,1-1C11.3,26,10.8,25.5,10.3,25.5z"/>
					</g>
					<g>
						<circle class="st2" cx="14.5" cy="26.5" r="1.3"/>
						<path class="st0" d="M14.5,28.1c-0.9,0-1.6-0.7-1.6-1.6s0.7-1.6,1.6-1.6c0.9,0,1.6,0.7,1.6,1.6S15.4,28.1,14.5,28.1z
							 M14.5,25.5c-0.5,0-1,0.4-1,1c0,0.5,0.4,1,1,1c0.5,0,1-0.4,1-1C15.5,26,15.1,25.5,14.5,25.5z"/>
					</g>
					<g>
						<circle class="st2" cx="18.9" cy="26.5" r="1.3"/>
						<path class="st0" d="M18.9,28.1c-0.9,0-1.6-0.7-1.6-1.6s0.7-1.6,1.6-1.6c0.9,0,1.6,0.7,1.6,1.6S19.8,28.1,18.9,28.1z
							 M18.9,25.5c-0.5,0-1,0.4-1,1c0,0.5,0.4,1,1,1c0.5,0,1-0.4,1-1C19.8,26,19.4,25.5,18.9,25.5z"/>
					</g>
				</g>
				<path class="st2" d="M21.6,33.8v-3c0-0.7-0.5-1.3-1.3-1.3H8.9c-0.7,0-1.3,0.5-1.3,1.3v3H21.6z"/>
				<g>
					<circle class="st0" cx="26.6" cy="27.1" r="1"/>
					<circle class="st0" cx="26.6" cy="29.9" r="1"/>
					<circle class="st0" cx="29.1" cy="27.1" r="1"/>
					<circle class="st0" cx="29.1" cy="29.9" r="1"/>
					<circle class="st0" cx="31.7" cy="27.1" r="1"/>
					<circle class="st0" cx="31.7" cy="29.9" r="1"/>
					<circle class="st0" cx="34.3" cy="27.1" r="1"/>
					<circle class="st0" cx="34.3" cy="29.9" r="1"/>
				</g>
			</g>
			<path class="st0" d="M40.1,35.2H3.9c-1.4,0-2.6-1.1-2.6-2.6V22.3c0-1.4,1.1-2.6,2.6-2.6h36.3c1.4,0,2.6,1.1,2.6,2.6v10.4
				C42.7,34.1,41.6,35.2,40.1,35.2z M3.9,21.4c-0.5,0-0.9,0.4-0.9,0.9v10.4c0,0.5,0.4,0.9,0.9,0.9h36.3c0.5,0,0.9-0.4,0.9-0.9V22.3
				c0-0.5-0.4-0.9-0.9-0.9H3.9z"/>
		</g>
		<g>
			<g>
				<path class="st1" d="M4,48.2h33.5c0.8,0,1.3-0.7,1.3-1.3v-8.6c0-0.8-0.7-1.3-1.3-1.3H4c-0.8,0-1.3,0.7-1.3,1.3v8.6
					C2.7,47.7,3.2,48.2,4,48.2z"/>
				<g>
					<g>
						<circle class="st2" cx="10.3" cy="40.6" r="1.3"/>
						<path class="st0" d="M10.3,42.3c-0.9,0-1.6-0.7-1.6-1.6S9.4,39,10.3,39s1.6,0.7,1.6,1.6S11.2,42.3,10.3,42.3z M10.3,39.6
							c-0.5,0-1,0.4-1,1s0.4,1,1,1s1-0.4,1-1S10.8,39.6,10.3,39.6z"/>
					</g>
					<g>
						<circle class="st2" cx="14.5" cy="40.6" r="1.3"/>
						<path class="st0" d="M14.5,42.3c-0.9,0-1.6-0.7-1.6-1.6s0.7-1.6,1.6-1.6c0.9,0,1.6,0.7,1.6,1.6S15.4,42.3,14.5,42.3z
							 M14.5,39.6c-0.5,0-1,0.4-1,1s0.4,1,1,1c0.5,0,1-0.4,1-1S15.1,39.6,14.5,39.6z"/>
					</g>
					<g>
						<circle class="st2" cx="18.9" cy="40.6" r="1.3"/>
						<path class="st0" d="M18.9,42.3c-0.9,0-1.6-0.7-1.6-1.6S18,39,18.9,39c0.9,0,1.6,0.7,1.6,1.6S19.8,42.3,18.9,42.3z M18.9,39.6
							c-0.5,0-1,0.4-1,1s0.4,1,1,1c0.5,0,1-0.4,1-1S19.4,39.6,18.9,39.6z"/>
					</g>
				</g>
				<path class="st2" d="M21.6,47.8v-3c0-0.7-0.5-1.3-1.3-1.3H8.9c-0.7,0-1.3,0.5-1.3,1.3v3H21.6z"/>
				<g>
					<circle class="st0" cx="26.6" cy="41.1" r="1"/>
					<circle class="st0" cx="26.6" cy="43.9" r="1"/>
					<circle class="st0" cx="29.1" cy="41.1" r="1"/>
					<circle class="st0" cx="29.1" cy="43.9" r="1"/>
					<circle class="st0" cx="31.7" cy="41.1" r="1"/>
					<circle class="st0" cx="31.7" cy="43.9" r="1"/>
					<circle class="st0" cx="34.3" cy="41.1" r="1"/>
					<circle class="st0" cx="34.3" cy="43.9" r="1"/>
				</g>
			</g>
			<path class="st0" d="M40.1,49.4H3.9c-1.5,0-2.6-1.1-2.6-2.7V36.3c0-1.4,1.1-2.6,2.6-2.6h36.3c1.4,0,2.6,1.1,2.6,2.6v10.5
				C42.7,48.2,41.6,49.4,40.1,49.4z M3.9,35.4c-0.5,0-0.9,0.4-0.9,0.9v10.4c0,0.6,0.4,1,0.9,1h36.3c0.5,0,0.9-0.4,0.9-0.9V36.3
				c0-0.5-0.4-0.9-0.9-0.9H3.9z"/>
		</g>
		<g>
			<g>
				<path class="st1" d="M4,62.2h33.5c0.8,0,1.3-0.7,1.3-1.3v-8.6c0-0.8-0.7-1.3-1.3-1.3H4c-0.8,0-1.3,0.7-1.3,1.3v8.6
					C2.7,61.6,3.2,62.2,4,62.2z"/>
				<g>
					<g>
						<circle class="st2" cx="10.3" cy="54.5" r="1.3"/>
						<path class="st0" d="M10.3,56.1c-0.9,0-1.6-0.7-1.6-1.6c0-0.9,0.7-1.6,1.6-1.6s1.6,0.7,1.6,1.6C11.9,55.4,11.2,56.1,10.3,56.1
							z M10.3,53.5c-0.5,0-1,0.4-1,1c0,0.5,0.4,1,1,1s1-0.4,1-1C11.3,54,10.8,53.5,10.3,53.5z"/>
					</g>
					<g>
						<circle class="st2" cx="14.5" cy="54.5" r="1.3"/>
						<path class="st0" d="M14.5,56.1c-0.9,0-1.6-0.7-1.6-1.6c0-0.9,0.7-1.6,1.6-1.6c0.9,0,1.6,0.7,1.6,1.6
							C16.2,55.4,15.4,56.1,14.5,56.1z M14.5,53.5c-0.5,0-1,0.4-1,1c0,0.5,0.4,1,1,1c0.5,0,1-0.4,1-1C15.5,54,15.1,53.5,14.5,53.5z"
							/>
					</g>
					<g>
						<circle class="st2" cx="18.9" cy="54.5" r="1.3"/>
						<path class="st0" d="M18.9,56.1c-0.9,0-1.6-0.7-1.6-1.6c0-0.9,0.7-1.6,1.6-1.6c0.9,0,1.6,0.7,1.6,1.6
							C20.5,55.4,19.8,56.1,18.9,56.1z M18.9,53.5c-0.5,0-1,0.4-1,1c0,0.5,0.4,1,1,1c0.5,0,1-0.4,1-1C19.8,54,19.4,53.5,18.9,53.5z"
							/>
					</g>
				</g>
				<path class="st2" d="M21.6,61.8v-3c0-0.7-0.5-1.3-1.3-1.3H8.9c-0.7,0-1.3,0.5-1.3,1.3v3H21.6z"/>
				<g>
					<circle class="st0" cx="26.6" cy="55.1" r="1"/>
					<circle class="st0" cx="26.6" cy="57.8" r="1"/>
					<circle class="st0" cx="29.1" cy="55.1" r="1"/>
					<circle class="st0" cx="29.1" cy="57.8" r="1"/>
					<circle class="st0" cx="31.7" cy="55.1" r="1"/>
					<circle class="st0" cx="31.7" cy="57.8" r="1"/>
					<circle class="st0" cx="34.3" cy="55.1" r="1"/>
					<circle class="st0" cx="34.3" cy="57.8" r="1"/>
				</g>
			</g>
			<path class="st0" d="M40.1,63.2H3.9c-1.4,0-2.6-1.1-2.6-2.6V50.3c0-1.4,1.1-2.6,2.6-2.6h36.3c1.4,0,2.6,1.1,2.6,2.6v10.4
				C42.7,62.1,41.6,63.2,40.1,63.2z M3.9,49.4c-0.5,0-0.9,0.4-0.9,0.9v10.4c0,0.5,0.4,0.9,0.9,0.9h36.3c0.5,0,0.9-0.4,0.9-0.9V50.3
				c0-0.5-0.4-0.9-0.9-0.9H3.9z"/>
		</g>
	</g>
</g>
</svg>
