<svg xmlns="http://www.w3.org/2000/svg" viewBox="0 0 300 300"><path d="M89.4 130.6c0 3.3.4 6 1 7.9.7 2 1.6 4.1 2.9 6.4.4.7.6 1.4.6 2.1 0 .9-.5 1.8-1.7 2.7l-5.6 3.7c-.8.5-1.6.8-2.3.8-.9 0-1.8-.4-2.7-1.2-1.2-1.3-2.3-2.8-3.2-4.2-.9-1.5-1.8-3.2-2.8-5.3-7 8.2-15.7 12.3-26.2 12.3-7.5 0-13.5-2.1-17.8-6.4-4.4-4.3-6.6-10-6.6-17.1 0-7.6 2.7-13.7 8.1-18.4 5.4-4.6 12.7-7 21.9-7 3 0 6.2.3 9.5.7 3.3.4 6.7 1.2 10.3 2v-6.5c0-6.8-1.4-11.5-4.2-14.3-2.9-2.8-7.7-4.1-14.5-4.1-3.1 0-6.3.4-9.6 1.2-3.3.8-6.5 1.8-9.6 3-1.4.6-2.5 1-3.1 1.2-.6.2-1.1.3-1.4.3-1.2 0-1.9-.9-1.9-2.8v-4.4c0-1.4.2-2.5.6-3.1s1.2-1.2 2.5-1.9c3.1-1.6 6.9-2.9 11.2-4 4.4-1.2 9-1.7 13.9-1.7 10.6 0 18.4 2.4 23.4 7.2 4.9 4.8 7.4 12.1 7.4 22v28.9h-.1zm-36.2 13.5c2.9 0 6-.5 9.2-1.6 3.2-1.1 6.1-3 8.5-5.7 1.4-1.7 2.5-3.6 3-5.7s.9-4.7.9-7.8v-3.7c-2.6-.6-5.4-1.2-8.2-1.5-2.9-.4-5.6-.5-8.4-.5-6 0-10.4 1.2-13.3 3.6-2.9 2.4-4.4 5.8-4.4 10.3 0 4.2 1.1 7.3 3.3 9.5 2.1 2 5.2 3.1 9.4 3.1zm71.6 9.7c-1.6 0-2.7-.3-3.4-.9-.7-.5-1.3-1.8-1.9-3.5l-21-69c-.5-1.8-.8-2.9-.8-3.6 0-1.4.7-2.2 2.1-2.2h8.7c1.7 0 2.9.3 3.5.9.7.5 1.2 1.8 1.8 3.5l15 59.1 14-59.1c.4-1.8 1-2.9 1.7-3.5.7-.5 2-.9 3.6-.9h7.1c1.7 0 2.9.3 3.6.9.7.5 1.3 1.8 1.7 3.5l14.1 59.8L190 79c.5-1.8 1.2-2.9 1.8-3.5.7-.5 1.9-.9 3.5-.9h8.3c1.4 0 2.2.7 2.2 2.2 0 .4-.1.9-.2 1.4-.1.5-.3 1.2-.6 2.2l-21.5 69c-.5 1.8-1.2 2.9-1.9 3.5-.7.5-1.9.9-3.4.9h-7.7c-1.7 0-2.9-.3-3.6-.9-.7-.6-1.3-1.8-1.7-3.6l-13.8-57.6-13.7 57.5c-.4 1.8-1 2.9-1.7 3.6-.7.6-2 .9-3.6.9h-7.6zm114.7 2.4c-4.6 0-9.3-.5-13.7-1.6-4.5-1.1-7.9-2.2-10.3-3.6-1.4-.8-2.4-1.7-2.8-2.5s-.5-1.7-.5-2.5v-4.6c0-1.9.7-2.8 2.1-2.8.5 0 1.1.1 1.6.3.5.2 1.3.5 2.2.9 3 1.3 6.3 2.4 9.8 3.1 3.6.7 7 1.1 10.6 1.1 5.6 0 10-1 13-2.9 3-2 4.6-4.8 4.6-8.5 0-2.5-.8-4.6-2.4-6.2-1.6-1.7-4.6-3.2-9-4.6l-12.9-4c-6.5-2.1-11.3-5.1-14.3-9.1-2.9-3.9-4.5-8.3-4.5-12.9 0-3.7.8-7 2.4-9.9 1.6-2.9 3.7-5.4 6.4-7.3 2.7-2.1 5.7-3.6 9.3-4.6s7.3-1.5 11.2-1.5c2 0 4 .1 6 .4 2.1.3 3.9.6 5.8 1 1.8.4 3.5.9 5.1 1.4 1.6.5 2.9 1.1 3.7 1.6 1.2.7 2.1 1.4 2.7 2.2.5.7.8 1.7.8 2.9v4c0 1.9-.7 2.9-2.1 2.9-.7 0-1.9-.4-3.4-1.1-5.1-2.3-10.8-3.5-17.1-3.5-5.1 0-9.1.8-11.9 2.5-2.8 1.7-4.2 4.3-4.2 7.9 0 2.5.9 4.6 2.7 6.3 1.8 1.7 5.1 3.4 9.8 4.9l12.7 4c6.4 2.1 11.1 4.9 13.8 8.6s4.1 7.9 4.1 12.5c0 3.8-.8 7.3-2.3 10.4-1.6 3-3.7 5.7-6.5 7.9s-6.1 3.8-9.9 5c-3.9 1.2-8.1 1.9-12.6 1.9z" fill="#252f3e"></path><path d="M256.3 199.5c-29.4 21.7-72 33.2-108.7 33.2-51.4 0-97.7-19-132.7-50.6-2.8-2.5-.3-5.9 3-3.9 37.8 22 84.5 35.2 132.8 35.2 32.6 0 68.4-6.8 101.3-20.7 5-2.2 9.2 3.3 4.3 6.8zm12.3-13.9c-3.7-4.8-24.8-2.3-34.4-1.2-2.9.4-3.3-2.1-.7-4 16.8-11.8 44.4-8.4 47.6-4.5 3.2 4-.9 31.6-16.6 44.8-2.4 2.1-4.7 1-3.7-1.7 3.6-8.8 11.5-28.7 7.8-33.4z" fill="#f90"></path></svg>