<svg xmlns="http://www.w3.org/2000/svg" id="Layer_1" x="0" y="0" viewBox="0 0 300 300" xml:space="preserve">
  <style>
    .st0{fill:#0089d6}
  </style>
  <path class="st0" d="M141.2 230.9c30-5.3 54.8-9.7 55-9.7l.5-.1-28.3-33.7c-15.6-18.5-28.3-33.7-28.3-33.8 0-.2 29.2-80.7 29.4-80.9.1-.1 19.9 34.2 48.2 83.3 26.5 45.9 48.3 83.7 48.5 84.1l.4.6h-180c.1-.2 54.6-9.8 54.6-9.8zM33.3 220.6s13.3-23.2 29.6-51.5l29.6-51.4 34.5-29c19-15.9 34.6-29 34.7-29 .1 0-.2.6-.6 1.4s-17.2 37-37.5 80.5l-36.8 79H60c-14.7.1-26.7.1-26.7 0z"></path>
</svg>