<svg xmlns="http://www.w3.org/2000/svg" id="Layer_1" x="0" y="0" viewBox="0 0 300 300" xml:space="preserve">
  <style>
    .st0{fill:#373c40}
  </style>
  <path class="st0" d="M166.4 227.6c1.8-7.1 3.5-14 5.4-20.8.2-.7 1.3-1.3 2.1-1.5 16.1-3.6 32.3-7.1 48.4-10.6 7.1-1.5 10-5.2 10-12.3v-53.2c0-6.4-3.2-10.3-9.5-11.7-16.2-3.5-32.5-7.1-48.7-10.7-1-.2-2.3-1.2-2.5-2-1.8-6.6-3.4-13.2-5.2-20.2 1.1-.1 2-.1 2.9-.1h56.9c19.9 0 35.6 13.3 38.8 32.8.3 2.1.3 4.3.3 6.4v64.7c0 22.4-16.9 39.2-39.2 39.2H166.4zM133.2 84.7c-1.7 6.9-3.4 13.7-5.3 20.4-.2.8-1.5 1.6-2.5 1.8-16.2 3.6-32.5 7.1-48.7 10.7-6 1.3-9.6 5.3-9.6 11.4-.1 18.1-.1 36.2 0 54.2 0 6.1 3.6 10.1 9.7 11.4 16.3 3.5 32.7 7.1 49 10.7.8.2 1.9.9 2.1 1.5 1.9 6.8 3.6 13.7 5.4 20.8H73.7c-19.9 0-35.4-12.8-39-32.3-.4-1.9-.4-3.9-.4-5.8v-66.8c0-20.6 16.5-37.7 37-38 20.1-.3 40.3-.1 60.4-.1.4-.1.9 0 1.5.1z"></path>
  <path class="st0" d="M128.1 153.6h43.6v4.9h-43.6v-4.9z"></path>
</svg>