<svg xmlns="http://www.w3.org/2000/svg" viewBox="0 0 300 300"><path d="M184.3 104.5l8.6.1 23.2-23.2 1.1-9.8c-18.5-16.4-42.8-26.4-69.4-26.4C99.7 45.2 59 78 47 122.3c2.5-1.8 8-.4 8-.4l46.4-7.6s2.4-4 3.6-3.7c20.7-22.8 55.5-25.4 79.3-6.1z" fill="#ea4335"></path><path d="M248.9 122.3c-5.3-19.6-16.3-37.3-31.5-50.8l-32.9 32.9c13.7 11 21.6 27.6 21.6 45.1v5.8c16 0 29 13 29 29s-13 29-29 29h-58l-5.8 5.8v34.8l5.8 5.8h58c41.6-.1 75.3-33.8 75.4-75.4-.1-25.6-13-48.3-32.6-62z" fill="#4285f4"></path><path d="M89.9 259.9h58v-46.4h-58c-4.1 0-8.2-.9-11.9-2.6l-8.4 2.6-23.2 23.2-2 7.9c13 9.9 29 15.4 45.5 15.3z" fill="#34a853"></path><path d="M89.9 109c-41.7.1-75.4 33.8-75.5 75.5 0 23.6 11.1 45.9 29.9 60.1L77.9 211c-10.4-4.7-17.1-15-17.1-26.5 0-16 13-29 29-29 11.4 0 21.8 6.7 26.5 17.1l33.6-33.6c-13.8-18.3-35.5-30-60-30z" fill="#fbbc05"></path></svg>