<?xml version="1.0" encoding="utf-8"?>
<!-- Generator: Adobe Illustrator 22.1.0, SVG Export Plug-In . SVG Version: 6.00 Build 0)  -->
<svg version="1.1" xmlns="http://www.w3.org/2000/svg" xmlns:xlink="http://www.w3.org/1999/xlink" x="0px" y="0px"
	 viewBox="0 0 600 340" style="enable-background:new 0 0 600 340;" xml:space="preserve">
<style type="text/css">
	.st0{fill:#F0F0F0;}
	.st1{fill:#CFD0D2;}
	.st2{fill:#E9E9E9;}
	.st3{fill:#DBDBDB;}
	.st4{fill:#FFFFFF;stroke:#53BCE6;stroke-width:4.5;stroke-linecap:round;stroke-linejoin:round;stroke-miterlimit:10;}
	.st5{fill:#D5EEF7;}
	.st6{fill:none;stroke:#53BCE6;stroke-width:4.5;stroke-linecap:round;stroke-miterlimit:10;}
	.st7{fill:none;stroke:#53BCE6;stroke-width:4.5;stroke-linecap:round;stroke-linejoin:round;stroke-miterlimit:10;}
	.st8{fill:#96D7EF;stroke:#53BCE6;stroke-width:3.1334;stroke-miterlimit:10;}
	.st9{fill:#96D7EF;}
	.st10{fill:#FFFFFF;}
	.st11{fill:#53BCE6;}
	.st12{display:none;}
</style>
<g id="Layer_7">
	<g>
		<g>
			<path class="st0" d="M137,315.3h403.9c4.4,0,7.9-3.6,7.9-7.9V32.2c0-4.4-3.6-7.9-7.9-7.9H137c-4.4,0-7.9,3.6-7.9,7.9v275.2
				C129.1,311.8,132.6,315.3,137,315.3z"/>
			<path class="st1" d="M548.8,51.6V32.2c0-4.4-3.6-7.9-7.9-7.9H137c-4.4,0-7.9,3.6-7.9,7.9v19.3H548.8z"/>
			<g>
				<circle class="st2" cx="145.1" cy="39.3" r="5.3"/>
				<circle class="st2" cx="160.8" cy="39.3" r="5.3"/>
				<circle class="st2" cx="176.5" cy="39.3" r="5.3"/>
			</g>
		</g>
		<rect x="144.4" y="63.3" class="st3" width="386.7" height="87.2"/>
		<g>
			<rect x="427.5" y="252.4" class="st3" width="86.7" height="35.7"/>
		</g>
		<g>
			<rect x="328.3" y="251.6" class="st3" width="66.5" height="35.7"/>
		</g>
		<g>
			<rect x="427.5" y="235.8" class="st3" width="86.7" height="9.1"/>
		</g>
		<g>
			<rect x="327.5" y="201.4" class="st3" width="86.7" height="40.8"/>
		</g>
		<g>
			<rect x="427.5" y="218.7" class="st3" width="86.7" height="9.1"/>
		</g>
		<g>
			<rect x="427.5" y="202.1" class="st3" width="86.7" height="9.1"/>
		</g>
		<g>
			<rect x="427.5" y="160" class="st3" width="86.7" height="34.1"/>
		</g>
		<g>
			<rect x="327.5" y="160" class="st3" width="86.7" height="34.1"/>
		</g>
	</g>
	<g>
		<g>
			<path class="st4" d="M74,311h272.4c3.4,0,6.3-2.8,6.3-6.3V119.4c0-3.4-2.8-6.3-6.3-6.3H74c-3.4,0-6.3,2.8-6.3,6.3v22.7v162.6
				C67.7,308.2,70.6,311,74,311z"/>
			<path class="st5" d="M74.3,310.3h262.7c3.4,0,6.3-2.8,6.3-6.3V130.2c0-3.4-2.8-6.3-6.3-6.3H74.3c-3.4,0-6.3,2.8-6.3,6.3V304
				C68,307.4,70.8,310.3,74.3,310.3z"/>
			<line class="st6" x1="351.3" y1="140" x2="67.9" y2="140"/>
			<path class="st7" d="M74,311h272.4c3.4,0,6.3-2.8,6.3-6.3V119.4c0-3.4-2.8-6.3-6.3-6.3H74c-3.4,0-6.3,2.8-6.3,6.3v22.7v162.6
				C67.7,308.2,70.6,311,74,311z"/>
			<g>
				<circle class="st8" cx="87.8" cy="127.3" r="5.8"/>
				<circle class="st8" cx="111" cy="127.3" r="5.8"/>
				<circle class="st8" cx="134.2" cy="127.3" r="5.8"/>
			</g>
		</g>
	</g>
	<g>
		<g>
			<g>
				<path class="st9" d="M267.4,232.3v-13.2l-9.7-3.3c-0.5-3-1.3-5.8-2.3-8.6l6.7-7.7l-6.6-11.4l-10,2c-1-1.1-2-2.2-3-3.2
					c-1-1-2.1-2.1-3.3-3l2-10l-11.4-6.6l-7.7,6.7c-2.7-1-5.6-1.7-8.5-2.3l-3.3-9.6h-13.2l-3.3,9.6c-3,0.5-5.8,1.3-8.6,2.3l-7.7-6.7
					l-11.4,6.6l2,10c-1.1,1-2.2,2-3.3,3c-1.1,1-2.1,2.2-3.1,3.3l0-0.1l-10-2l-6.6,11.4l6.7,7.7c-1,2.8-1.7,5.6-2.3,8.6l-9.6,3.3
					v13.2l9.6,3.3c0.5,3,1.3,5.8,2.3,8.6l-6.7,7.7l6.6,11.4l10-2c1,1.1,2,2.2,3,3.3c1,1,2.2,2.1,3.3,3l-2,10l11.4,6.6l7.7-6.7
					c2.8,1,5.6,1.8,8.6,2.3l3.3,9.7h13.2l3.3-9.7c3-0.5,5.8-1.3,8.6-2.3l7.7,6.7l11.4-6.6l-2-10c1.1-1,2.2-2,3.3-3c1-1,2-2.1,3-3.3
					l10,2l6.6-11.4l-6.7-7.7c1-2.7,1.8-5.6,2.3-8.6L267.4,232.3z M203.8,257.2c-17.4,0-31.5-14.1-31.5-31.5
					c0-17.4,14.1-31.5,31.5-31.5c17.4,0,31.5,14.1,31.5,31.5C235.3,243.1,221.2,257.2,203.8,257.2z"/>
			</g>
		</g>
		<g>
			<g>
				<g>
					<g>
						<path class="st10" d="M189.5,219.8L171.2,238c-8.5-2.8-18-0.5-24.4,5.9c-4.6,4.6-7,10.7-7,17c0,2.9,0.5,5.9,1.7,8.8
							c0.3,0.7,0.9,1.2,1.6,1.3c0.7,0.2,1.5-0.1,2-0.6l13.9-13.9l9.3,9.3l-13.9,13.9c-0.5,0.5-0.7,1.3-0.6,2
							c0.1,0.7,0.7,1.3,1.3,1.6c8.9,3.5,19,1.4,25.7-5.4l0,0c6.4-6.4,8.6-15.8,5.9-24.4l46.3-46.3c8.5,2.8,18,0.5,24.4-5.9
							c6.7-6.7,8.9-16.8,5.4-25.7c-0.3-0.7-0.9-1.2-1.6-1.3c-0.7-0.2-1.5,0.1-2,0.6l-13.9,13.9l-9.3-9.3l13.9-13.9
							c0.5-0.5,0.7-1.3,0.6-2c-0.2-0.7-0.7-1.3-1.3-1.6c-8.9-3.5-19-1.4-25.7,5.4c-6.4,6.4-8.6,15.8-5.9,24.4L200.3,209L189.5,219.8
							z M160,280.1"/>
						<path class="st11" d="M163.8,287.1c-3.2,0-6.5-0.6-9.6-1.8c-1.4-0.6-2.4-1.8-2.7-3.3c-0.3-1.5,0.1-3,1.2-4.1l12.2-12.2l-6-6
							L146.7,272c-1.1,1.1-2.6,1.5-4.1,1.2c-1.5-0.3-2.7-1.3-3.3-2.7c-1.2-3.1-1.8-6.3-1.8-9.6c0-7,2.7-13.6,7.7-18.6
							c6.7-6.7,16.3-9.2,25.3-6.8L215,191c-2.4-9.1,0.1-18.6,6.8-25.3c7.4-7.4,18.5-9.7,28.2-5.9c1.4,0.6,2.4,1.8,2.7,3.3
							c0.3,1.5-0.1,3-1.2,4.1l-12.3,12.3l6,6l12.3-12.2c1.1-1.1,2.6-1.5,4.1-1.2c1.5,0.3,2.7,1.3,3.3,2.7c3.8,9.7,1.5,20.8-5.9,28.2
							c-6.7,6.7-16.3,9.2-25.3,6.8l-44.4,44.4c2.4,9.1-0.1,18.6-6.8,25.3C177.4,284.5,170.7,287.1,163.8,287.1z M159,254.2
							c0.6,0,1.2,0.2,1.6,0.7l9.3,9.3c0.9,0.9,0.9,2.3,0,3.2L156,281.2c8,3,17.1,1.1,23.2-5c5.8-5.8,7.8-14.2,5.3-22
							c-0.3-0.8,0-1.7,0.6-2.3l46.3-46.3c0.6-0.6,1.5-0.8,2.3-0.6c7.8,2.5,16.2,0.5,22-5.3c6.1-6.1,8-15.2,4.9-23.3l-13.7,13.9
							c-0.9,0.9-2.3,0.9-3.2,0l-9.3-9.3c-0.4-0.4-0.7-1-0.7-1.6s0.2-1.2,0.7-1.6l13.9-13.9c-8-3-17.1-1.1-23.2,5
							c-5.8,5.8-7.8,14.2-5.3,22c0.3,0.8,0,1.7-0.6,2.3l-28.1,28.1l0,0l-18.2,18.2c-0.6,0.6-1.5,0.8-2.3,0.6
							c-7.8-2.5-16.2-0.5-22,5.3c-4.1,4.1-6.4,9.5-6.4,15.3c0,2.7,0.5,5.4,1.5,7.9l13.7-13.9C157.8,254.4,158.3,254.2,159,254.2z
							 M189.5,219.8L189.5,219.8L189.5,219.8z"/>
					</g>
				</g>
			</g>
			<g>
				<g>
					<path class="st5" d="M181.8,232.8l-8.5,10.8c-6.8-2.2-14.4-0.4-19.5,4.7c-3.7,3.7-9.8,9.6-9.8,14.6c0,2.4,0.3,2.4,1.2,4.7
						c0.2,0.5,0.7,1,1.3,1.1c0.6,0.1,1.2-0.1,1.6-0.5l17.1-13.8l8,9.7l-17.8,16.5c-0.4,0.4-0.6,1-0.5,1.6c0.1,0.6,0.5,1.1,1.1,1.3
						c7.1,2.8,20.1-2.6,25.5-8l0,0c5.1-5.1,6.9-12.7,4.7-19.5l46.9-50.3c6.8,2.2,16.1,1.7,21.2-3.4c5.4-5.4,6.3-9.3,3.5-16.4
						c-0.2-0.5-0.7-1-1.3-1.1c-0.6-0.1-1.2,0.1-1.6,0.5l-11.4,10.1l-11.5-13.4l11.1-11.3c0.4-0.4,2.1-1,2-1.6
						c-0.1-0.6-0.5-1.1-1.1-1.3c-7.1-2.8-14.6,2.2-20,7.6c-5.1,5.1-4,13.9-1.8,20.8l-32,28.4L181.8,232.8z M159.9,281"/>
				</g>
			</g>
			<g>
				<g>
					<path class="st11" d="M163.8,286.2c-3.1,0-6.2-0.6-9.3-1.7c-1.1-0.4-1.9-1.4-2.2-2.6c-0.2-1.2,0.1-2.4,1-3.2l12.9-12.9
						l-7.3-7.3L146,271.3c-0.8,0.8-2.1,1.2-3.2,1c-1.2-0.2-2.1-1.1-2.6-2.2c-1.2-3-1.7-6.1-1.7-9.3c0-6.8,2.6-13.1,7.4-17.9
						c6.6-6.6,16.1-9,24.9-6.4l45.2-45.2c-2.6-8.9-0.1-18.4,6.4-24.9c7.1-7.1,17.8-9.4,27.2-5.7c1.1,0.4,1.9,1.4,2.2,2.6
						c0.2,1.2-0.1,2.4-1,3.2L238,179.4l7.3,7.3l12.9-12.9c0.8-0.8,2-1.2,3.2-1c1.2,0.2,2.1,1.1,2.6,2.2c3.7,9.4,1.5,20.1-5.7,27.2
						c-6.6,6.6-16.1,9-24.9,6.4l-45.2,45.2c2.6,8.9,0.1,18.4-6.4,24.9C176.9,283.6,170.4,286.2,163.8,286.2z M159,255.1L159,255.1
						c0.4,0,0.7,0.1,1,0.4l9.3,9.3c0.5,0.5,0.5,1.4,0,1.9l-13.9,13.9c-0.2,0.2-0.3,0.5-0.2,0.7c0.1,0.3,0.2,0.5,0.5,0.6
						c8.4,3.3,17.9,1.3,24.3-5.1c6-6,8.2-14.8,5.5-23c-0.2-0.5,0-1,0.3-1.4l46.3-46.3c0.4-0.4,0.9-0.5,1.4-0.3
						c8.1,2.6,16.9,0.5,23-5.5c6.4-6.4,8.4-15.9,5.1-24.3c-0.1-0.3-0.3-0.4-0.6-0.5c-0.3-0.1-0.5,0-0.7,0.2l-13.9,13.9
						c-0.5,0.5-1.4,0.5-1.9,0l-9.3-9.3c-0.3-0.3-0.4-0.6-0.4-1s0.1-0.7,0.4-1l13.9-13.9c0.2-0.2,0.3-0.5,0.2-0.7
						c-0.1-0.3-0.2-0.5-0.5-0.6c-8.4-3.3-17.9-1.3-24.3,5.1c-6,6-8.2,14.9-5.5,23c0.2,0.5,0,1-0.3,1.4l-28.1,28.1h0L172.2,239
						c-0.4,0.4-0.9,0.5-1.4,0.3c-8.1-2.6-16.9-0.5-23,5.5c-4.3,4.3-6.6,10-6.6,16c0,2.8,0.5,5.6,1.6,8.3c0.1,0.3,0.3,0.4,0.6,0.5
						c0.3,0.1,0.5,0,0.7-0.2l13.9-13.9C158.2,255.3,158.6,255.1,159,255.1z M189.5,219.8L189.5,219.8L189.5,219.8z"/>
				</g>
			</g>
		</g>
	</g>
</g>
<g id="Layer_5" class="st12">
</g>
</svg>
