<svg xmlns="http://www.w3.org/2000/svg" viewBox="0 0 300 300" xml:space="preserve">
  <path d="m219.7 161.8-2.5 33.4-9.7-7.4 1.1-16.4v-.6l-.3-.3-.3-.3-20-13.3.3-14.4c-.1 0 31.4 19.3 31.4 19.3zm-48.3 35.1-15.4-12v3.8c0 .6-.3 1.1-.6 1.4l-10.8 7.4 11.9 9.6.3.3v.6l.6 11.3 13.7 11.6.3-34zm-92.7 13.7 7.1 33.5 28.6 29.5-4.8-32.8c-.1-.1-30.9-30.2-30.9-30.2zm27.6 6.4-7.2-46.4-34-28.3 9.1 44.2 32.1 30.5zm-11-73.6L85.8 78 46.7 53.6l12.7 60.9 35.9 28.9z" fill="#004712"></path>
  <path d="m247.4 144.2-3.4 30.9-24 18.7 2.8-31.7 24.6-17.9zm-74.7 52.5.4 34.6 30.5-24.6 2.2-33.1-33.1 23.1zm-18.4 14-41.9 30 5.1 34.5 39-30-2.2-34.5zm-1.2-22.6-2-46.1-49.5 27.9 7.4 48 44.1-29.8zm-3.1-71.6-2.5-61.2L88.6 78l9.6 65.7 51.8-27.2z" fill="#00b259"></path>
  <path d="M250.8 140.8c0-.3 0-.3 0 0v-.6s0-.3-.3-.3c0 0-.3 0-.3-.3l-34-19c-.6-.3-1.1-.3-1.4 0L186 138.3h-.3v1.8l-.3 15.3-11.6-7.6c-.6-.3-1.1-.3-1.7 0l-17.3 9.6-.8-17v-1.6h-.3l-17.6-11.6 16.4-8.5c.6-.3.8-.8.8-1.4l-3-64.3v-.3s0-.3-.3-.3c0 0 0-.3-.3-.3l-44.5-21.5c-.3-.3-.6-.3-.8-.3L44.1 49.1s-.3 0-.3.3c0 0-.3 0-.3.3v1.8l13.3 64.8c0 .3.3.6.6.8l18.1 14.2-13.3 6.2s-.3 0-.3.3c0 0 0 .3-.3.3v.6l10.2 48.7c0 .3.3.6.6.8L85.2 200l-8.5 5.1-.3.3s0 .3-.3.3V206.6l7.9 37.7c0 .3.3.6.3.8l30.9 34h.3s.3 0 .3.3h1.5l40.8-32.6c.3-.3.6-.8.6-1.1l-.8-22.4 13.6 11.3s.3 0 .3.3h1.5l32.8-26c.3-.3.6-.6.6-1.1l1.1-16.4 9.9 6.8h1.2s.3 0 .3-.3l26.6-21.2c.3-.3.6-.6.6-.8l4.4-35.1c0 .3 0 .3 0 0zm-30.8 53 2.8-31.7 24.9-17.8-4.2 30.9-23.5 18.6zm-12.5-6 1.1-16.4v-.6l-.3-.3-.3-.3-20-13.3.3-14.4 31.4 19.5-2.8 32.6c-.1 0-9.4-6.8-9.4-6.8zm-4.2 19-29.7 23.8-.3-33.4 32-22.9-2 32.5zM155.7 245l-38.2 30.3-5.1-34.5L154 211l1.7 34zM86 243.9l-6.8-32.6 30.3 29.4 4.8 32.8L86 243.9zM85.5 78l9.3 64.6-35.4-28-12.7-61L85.5 78zm62-22.7 2.5 61.2-51.8 27.2L88.6 78l58.9-22.7zm5.6 132.8L109 217.5l-6.8-47 49-28 1.9 45.6zm-54-17.3 6.8 45.6-31.7-30-9.1-44.2 34 28.6zm58 37.1v-.6l-.3-.3-11.9-9.6 10.8-7.4c.6-.3.6-.8.6-1.4v-2.5l14.4 11 .3 33.4-13.3-11-.6-11.6z"></path>
</svg>