<svg xmlns="http://www.w3.org/2000/svg" id="Layer_1" x="0" y="0" viewBox="0 0 280 100" xml:space="preserve"><style>.st0{fill:#818a94}</style><path class="st0" d="M48.3 68.3c.5-1.8.9-3.5 1.3-5.2 0-.2.3-.3.5-.4 4.1-.9 8.1-1.8 12.2-2.7 1.8-.4 2.5-1.3 2.5-3.1V43.6c0-1.6-.8-2.6-2.4-2.9-4.1-.9-8.2-1.8-12.2-2.7-.2-.1-.6-.3-.6-.5-.5-1.7-.9-3.3-1.3-5.1h15c5 0 8.9 3.3 9.7 8.2.1.5.1 1.1.1 1.6v16.2c0 5.6-4.2 9.8-9.8 9.8H49.1c-.2.1-.5.1-.8.1zM40 32.4c-.4 1.7-.9 3.4-1.3 5.1-.1.3-.4.5-.7.5-4.1.9-8.2 1.8-12.2 2.7-1.5.3-2.4 1.3-2.4 2.9v13.6c0 1.5.9 2.5 2.4 2.9l12.3 2.7c.2 0 .5.2.5.4.5 1.7.9 3.4 1.4 5.2H25c-5 0-8.9-3.2-9.8-8.1-.1-.5-.1-1-.1-1.5V42c0-5.2 4.1-9.5 9.3-9.6 5.1-.1 10.1 0 15.2 0h.4zM209.8 58.7c.2 1 .5 2 .8 3.2-1.3.3-2.5.6-3.7.8-2.8.4-5.6.4-8.3-.2-3.1-.7-4.9-3-4.9-6.1 0-3.9.1-7.8 0-11.7-.1-2.9 1.7-5.6 5-6.3 3.9-.8 7.7-.6 11.5.5.2.1.3.1.5.2-.3 1.1-.5 2.1-.8 3.1-2.6-.9-5.3-1.2-8-1.1-.9.1-1.9.2-2.8.4-1.4.4-2.1 1.3-2.1 2.8v11.9c0 1.6.7 2.6 2.3 3 2.3.6 4.7.6 7 .2 1.1-.1 2.3-.4 3.5-.7zM250.5 62.4c-2.4.2-4.8.4-7.2.5-1 0-2.1-.2-3-.5-2.1-.7-3.2-2.3-3.4-4.5-.1-1.1-.1-2.3-.1-3.4v-9.3-.8h3.3v12.4c0 1.8.5 2.4 2.3 2.7 1.6.2 3.2 0 4.9-.4V44.4h3.3c-.1 6.1-.1 12.1-.1 18zM213.8 37.8h3.1v24.7h-3.1V37.8zM106.2 37.9h3.1v24.6h-3.1V37.9zM113.3 44.5h3.2v17.2c0 .6-.1.8-.7.8-.8-.1-1.6 0-2.5 0v-18z"></path><path class="st0" d="M38.7 49.7h10.9v1.2H38.7v-1.2zM103.7 62.2c-1.3-4.3-2.5-8.5-3.8-12.8-1.2-3.8-2.8-7.5-4.6-11-.2-.4-.5-.6-.9-.6H91c-.4 0-.7.1-.8.5-.4.8-.8 1.6-1.2 2.5-3 6.5-5.1 13.4-7 20.4-.1.4-.2.9-.3 1.4H85c.1-.2.1-.4.2-.6.5-1.7.9-3.3 1.4-5 .1-.4.3-.6.8-.6h10.9c.4 0 .6.2.7.6.5 1.7.9 3.4 1.4 5.2.1.2.3.5.4.5h3.1c-.2-.4-.2-.5-.2-.5zm-16-9.2c.3-.9.5-1.7.9-2.5 1.2-2.9 2.3-5.8 3.5-8.7.1-.2.4-.5.6-.5.2 0 .5.3.6.5 1.8 3.6 3.1 7.4 4.4 11.3-3.4-.1-6.7-.1-10-.1zM134.7 49.1c0-2.3-1.4-3.9-3.5-4.6-1.5-.5-3.1-.5-4.6-.3-.9.1-1.8.2-2.8.4v-6.7h-2.6c-.5 0-.6.1-.6.6V62c0 .5.2.6.7.6 1.4 0 2.8.1 4.2.2 1.4.1 2.9.2 4.3.1 3-.2 5.1-2.3 5.2-5.2-.2-2.9-.3-5.8-.3-8.6zm-5.4 10.4c-1.9.3-3.7.1-5.6-.3V56v-7.3c0-.6.1-.9.8-1 1.6-.2 3.2-.6 4.9-.3 1.6.2 2.2.8 2.2 2.4V57c-.1 1.7-.7 2.3-2.3 2.5zM169.4 48.9c-.1-2.1-1.2-3.6-3.3-4.3-1.6-.6-3.2-.6-4.9-.4-.9.1-1.8.2-2.8.4v-6.7h-3.2v24.7h.8c1.3.1 2.5.1 3.8.2 1.4.1 2.9.2 4.3.1 3.2-.2 5.2-2.2 5.3-5.4.2-2.9.2-5.8 0-8.6zm-3.1 8.2c0 1.5-.6 2.1-2.1 2.4-1.8.3-3.5.1-5.3-.2-.4-.1-.4-.4-.4-.7v-5.1-5c0-.4.1-.6.6-.7 1.7-.3 3.3-.6 5-.4 1.6.2 2.2.8 2.2 2.4v7.3zM263.6 37.9v6.6c-.4-.1-.7-.1-1-.1-1.6 0-3.2-.2-4.7 0-2.6.3-4.3 1.9-4.5 4.5-.2 3.1-.1 6.3 0 9.4.1 2.2 1.4 3.7 3.5 4.3 1.3.4 2.7.5 4 .5 1.9 0 3.7-.2 5.6-.4.1 0 .2-.1.4-.1V38c-1.1-.1-2.2-.1-3.3-.1zm0 20.8c0 .2-.2.6-.4.6-1.6.3-3.2.5-4.8.2-1.3-.3-1.8-.9-1.9-2.2v-7.9c0-1.1.4-1.6 1.5-1.9 1.8-.5 3.5-.1 5.3.2.1 0 .3.4.3.6v10.4zM151.3 48.8c-.1-2-1.3-3.5-3.2-4.2-1.2-.5-2.5-.5-3.8-.5-1.9.1-3.8.4-5.7 1 .3 1.1.5 2.1.8 3.1 1.3-.3 2.4-.5 3.6-.7 1.3-.2 2.5-.3 3.8.1.6.2 1.2.5 1.3 1.2.1 1 .1 2 .2 3h-.6c-2.3-.3-4.6-.2-6.8.5-2.4.8-3.8 2.8-3.7 5.2.1 2.7 1.6 4.6 4.2 5.2.7.2 1.4.3 2.1.2 2.6-.1 5.3-.3 7.9-.4 0 0 .1 0 .2-.1-.3-4.5-.2-9.1-.3-13.6zm-3.2 8.4v1.1c0 1 0 1-.9 1.1-1.4.1-2.9.3-4.3.3-1.6 0-2.5-.8-2.5-2.3 0-.9.4-1.6 1.2-1.9 1-.3 2.1-.5 3.2-.6.9-.1 1.9.1 2.8.2.4 0 .6.2.6.6-.1.5-.1 1-.1 1.5zM186.1 49.3c0-2.5-1.5-4.3-3.9-4.9-1.8-.4-3.6-.4-5.3-.1-1.2.2-2.3.5-3.5.8.3 1.1.5 2.1.8 3.2 1-.2 1.8-.5 2.7-.6 1.5-.3 3-.5 4.5-.1.7.2 1.3.5 1.4 1.3.1 1 .1 2 .2 3-.6-.1-1.1-.1-1.6-.2-2.1-.2-4.2 0-6.1.7-2.2.9-3.4 2.7-3.3 5.1.1 2.6 1.4 4.4 3.7 5.1.8.2 1.6.4 2.4.4 2.6-.1 5.1-.3 7.7-.4.4 0 .4-.3.4-.6-.1-4.3 0-8.5-.1-12.7zM182 59.4c-1.7.1-3.4.2-5.1.1-1.3-.1-1.8-.9-1.9-2.1 0-1 .5-1.7 1.6-2 1.9-.6 3.8-.6 5.8-.2.2 0 .4.3.4.5v2.8c.2.5-.1.8-.8.9zM234 53.5v-3.8c0-2.7-1.9-5.1-4.6-5.5-1.2-.2-2.5-.1-3.8-.1-3.1 0-5.6 2.5-5.6 5.6v7.6c0 2.8 2.1 5.2 4.9 5.6 1.1.1 2.3.1 3.4.1 2.7 0 5.1-1.9 5.5-4.6.2-1.6 0-3.2 0-4.9h.2zm-3.2 3.6c0 1.5-1.1 2.5-2.6 2.5H226c-1.6 0-2.6-1-2.6-2.6v-3.6-3.6c0-1.5.9-2.5 2.3-2.6 1-.1 1.9-.1 2.9 0 1.4.1 2.3 1.1 2.3 2.5-.1 2.6-.1 5-.1 7.4z"></path></svg>