<?xml version="1.0" encoding="utf-8"?>
<!-- Generator: Adobe Illustrator 22.1.0, SVG Export Plug-In . SVG Version: 6.00 Build 0)  -->
<svg version="1.1" id="Layer_3" xmlns="http://www.w3.org/2000/svg" xmlns:xlink="http://www.w3.org/1999/xlink" x="0px" y="0px"
	 viewBox="0 0 600 340" style="enable-background:new 0 0 600 340;" xml:space="preserve">
<style type="text/css">
	.st0{fill:#F0F0F0;}
	.st1{fill:#DBDBDB;}
	.st2{fill:#CFD0D2;}
	.st3{fill:#E9E9E9;}
	.st4{fill:none;stroke:#DBDBDB;stroke-width:2;stroke-miterlimit:10;}
	.st5{opacity:0.5;fill:#DBDBDB;}
	.st6{fill:#F0F0F0;stroke:#53BCE6;stroke-width:4.6628;stroke-linecap:round;stroke-linejoin:round;stroke-miterlimit:10;}
	.st7{fill:#D5EEF7;}
	.st8{fill:none;stroke:#53BCE6;stroke-width:4.6628;stroke-linecap:round;stroke-linejoin:round;stroke-miterlimit:10;}
</style>
<g>
	<g>
		<path class="st0" d="M136,315.3h405.6c4.4,0,7.9-3.6,7.9-7.9V32.2c0-4.4-3.6-7.9-7.9-7.9H136c-4.4,0-7.9,3.6-7.9,7.9v275.2
			C128.1,311.8,131.6,315.3,136,315.3z"/>
		<path class="st1" d="M218.4,24.3H136c-4.4,0-7.9,3.6-7.9,7.9v275.2c0,4.4,3.6,7.9,7.9,7.9h82.4V24.3z"/>
		<path class="st2" d="M549.5,51.6V32.2c0-4.4-3.6-7.9-7.9-7.9H136c-4.4,0-7.9,3.6-7.9,7.9v19.3H549.5z"/>
		<g>
			<circle class="st3" cx="144.1" cy="39.3" r="5.3"/>
			<circle class="st3" cx="159.8" cy="39.3" r="5.3"/>
			<circle class="st3" cx="175.5" cy="39.3" r="5.3"/>
		</g>
	</g>
	<rect x="462.7" y="67" class="st1" width="70.6" height="78.5"/>
	<rect x="232.1" y="69" class="st4" width="215.5" height="18.3"/>
	<rect x="232.1" y="97.7" class="st1" width="215.5" height="18.3"/>
	<rect x="232.1" y="125.7" class="st1" width="69.6" height="18.3"/>
	<rect x="380.4" y="125.7" class="st1" width="67.3" height="18.3"/>
	<rect x="309" y="125.7" class="st1" width="65.3" height="18.3"/>
	<rect x="462.7" y="160.9" class="st1" width="70.6" height="137.1"/>
	<rect x="233.6" y="160.9" class="st5" width="215.1" height="137.1"/>
</g>
<g>
	<g>
		<g>
			<path class="st6" d="M51.3,212.2c0,55.5,44.9,100.4,100.4,100.4c55.5,0,100.4-44.9,100.4-100.4c0-55.5-44.9-100.4-100.4-100.4
				C96.2,111.9,51.3,156.8,51.3,212.2L51.3,212.2z M206.5,182"/>
		</g>
	</g>
	<g>
		<g>
			<path class="st7" d="M54,216.3c0,54,43.7,97.7,97.7,97.7c54,0,97.7-43.7,97.7-97.7c0-54-43.7-97.7-97.7-97.7
				C97.7,118.7,54,162.4,54,216.3L54,216.3z M61.6,216.3c0-13.1,2.8-25.5,7.8-36.7l43,117.8C82.3,282.9,61.6,252,61.6,216.3
				L61.6,216.3z M151.7,306.4c-8.9,0-17.4-1.2-25.5-3.6l27.1-78.6l27.7,75.9c0.2,0.5,0.4,0.9,0.6,1.3
				C172.3,304.7,162.2,306.4,151.7,306.4L151.7,306.4z M224.6,214.6c5.2-12.9,6.9-23.1,6.9-32.3c0-3.3-0.2-6.4-0.6-9.3
				c7,12.9,11,27.6,11,43.3c0,33.2-18,62.2-44.7,77.9L224.6,214.6z M205.1,186.9c3.4,6,7.4,13.7,7.4,24.8c0,7.7-2.3,17.5-6.9,29.2
				l-9,30l-32.6-96.8c5.5-0.3,10.3-0.8,10.3-0.8c4.9-0.6,4.3-7.7-0.6-7.4c0,0-14.6,1.1-24,1.1c-8.9,0-23.7-1.1-23.7-1.1
				c-4.9-0.3-5.4,7.1-0.6,7.4c0,0,4.6,0.6,9.5,0.8l14,38.5l-19.7,59.1l-32.8-97.6c5.4-0.3,10.3-0.9,10.3-0.9
				c4.9-0.6,4.3-7.7-0.6-7.4c0,0-14.6,1.1-24,1.1c-1.7,0-3.7,0-5.8-0.1c16.1-24.5,43.8-40.6,75.3-40.6c23.5,0,44.8,9,60.9,23.7
				c-0.4,0-0.8-0.1-1.1-0.1c-8.9,0-15.1,7.7-15.1,16C196.3,173.2,200.6,179.5,205.1,186.9L205.1,186.9z M205.1,186.9"/>
		</g>
		<g>
			<path class="st8" d="M51.3,212.2c0,55.5,44.9,100.4,100.4,100.4c55.5,0,100.4-44.9,100.4-100.4c0-55.5-44.9-100.4-100.4-100.4
				C96.2,111.9,51.3,156.8,51.3,212.2L51.3,212.2z M59,212.2c0-13.4,2.9-26.2,8-37.7l44.1,121.1C80.3,280.6,59,248.9,59,212.2
				L59,212.2z M151.6,304.8c-9.1,0-17.9-1.2-26.2-3.7l27.8-80.8l28.5,78c0.2,0.5,0.4,0.9,0.6,1.3C172.8,303,162.4,304.8,151.6,304.8
				L151.6,304.8z M226.5,210.5c5.3-13.2,7.1-23.8,7.1-33.1c0-3.4-0.2-6.6-0.6-9.6c7.2,13.2,11.3,28.4,11.3,44.5
				c0,34.2-18.5,64-46,80L226.5,210.5z M206.5,182c3.5,6.1,7.6,14.1,7.6,25.5c0,7.9-2.4,18-7.1,30l-9.2,30.8l-33.5-99.5
				c5.6-0.3,10.6-0.9,10.6-0.9c5-0.6,4.5-7.9-0.6-7.6c0,0-15,1.2-24.7,1.2c-9.1,0-24.4-1.2-24.4-1.2c-5-0.3-5.6,7.3-0.6,7.6
				c0,0,4.8,0.6,9.8,0.9l14.4,39.5l-20.3,60.8L94.9,168.8c5.6-0.3,10.6-0.9,10.6-0.9c5-0.6,4.4-7.9-0.6-7.7c0,0-15,1.2-24.7,1.2
				c-1.7,0-3.8,0-5.9-0.1c16.5-25.2,45.1-41.7,77.4-41.7c24.1,0,46.1,9.2,62.5,24.3c-0.4,0-0.8-0.1-1.2-0.1
				c-9.2,0-15.5,7.9-15.5,16.5C197.5,167.9,201.8,174.4,206.5,182L206.5,182z M206.5,182"/>
		</g>
	</g>
</g>
</svg>
