<?xml version="1.0" encoding="utf-8"?>
<!-- Generator: Adobe Illustrator 22.1.0, SVG Export Plug-In . SVG Version: 6.00 Build 0)  -->
<svg version="1.1" id="Layer_6" xmlns="http://www.w3.org/2000/svg" xmlns:xlink="http://www.w3.org/1999/xlink" x="0px" y="0px"
	 viewBox="0 0 600 340" style="enable-background:new 0 0 600 340;" xml:space="preserve">
<style type="text/css">
	.st0{fill:#F0F0F0;}
	.st1{fill:#CFD0D2;}
	.st2{fill:#E9E9E9;}
	.st3{fill:#DBDBDB;}
	.st4{fill:#FFFFFF;stroke:#53BCE6;stroke-width:4.5;stroke-linecap:round;stroke-linejoin:round;stroke-miterlimit:10;}
	.st5{fill:#D5EEF7;}
	.st6{fill:none;stroke:#53BCE6;stroke-width:4.5;stroke-linecap:round;stroke-miterlimit:10;}
	.st7{fill:none;stroke:#53BCE6;stroke-width:4.5;stroke-linecap:round;stroke-linejoin:round;stroke-miterlimit:10;}
	.st8{fill:#96D7EF;stroke:#53BCE6;stroke-width:3.1334;stroke-miterlimit:10;}
	.st9{fill:#96D7EF;}
	.st10{fill:#FFFFFF;stroke:#54BBE5;stroke-width:3.4718;stroke-linecap:round;stroke-linejoin:round;stroke-miterlimit:10;}
	.st11{fill:#D4EEF6;}
	.st12{fill:none;stroke:#54BBE5;stroke-width:10.4155;stroke-linecap:round;stroke-linejoin:round;stroke-miterlimit:10;}
	.st13{fill:none;stroke:#54BBE5;stroke-width:5.2205;stroke-linecap:round;stroke-linejoin:round;stroke-miterlimit:10;}
</style>
<g>
	<g>
		<path class="st0" d="M137,315.3h403.9c4.4,0,7.9-3.6,7.9-7.9V32.2c0-4.4-3.6-7.9-7.9-7.9H137c-4.4,0-7.9,3.6-7.9,7.9v275.2
			C129.1,311.8,132.6,315.3,137,315.3z"/>
		<path class="st1" d="M548.8,51.6V32.2c0-4.4-3.6-7.9-7.9-7.9H137c-4.4,0-7.9,3.6-7.9,7.9v19.3H548.8z"/>
		<g>
			<circle class="st2" cx="145.1" cy="39.3" r="5.3"/>
			<circle class="st2" cx="160.8" cy="39.3" r="5.3"/>
			<circle class="st2" cx="176.5" cy="39.3" r="5.3"/>
		</g>
	</g>
	<rect x="144.4" y="63.3" class="st3" width="386.7" height="87.2"/>
	<g>
		<rect x="427.5" y="252.4" class="st3" width="86.7" height="35.7"/>
	</g>
	<g>
		<rect x="328.3" y="251.6" class="st3" width="66.5" height="35.7"/>
	</g>
	<g>
		<rect x="427.5" y="235.8" class="st3" width="86.7" height="9.1"/>
	</g>
	<g>
		<rect x="327.5" y="201.4" class="st3" width="86.7" height="40.8"/>
	</g>
	<g>
		<rect x="427.5" y="218.7" class="st3" width="86.7" height="9.1"/>
	</g>
	<g>
		<rect x="427.5" y="202.1" class="st3" width="86.7" height="9.1"/>
	</g>
	<g>
		<rect x="427.5" y="160" class="st3" width="86.7" height="34.1"/>
	</g>
	<g>
		<rect x="327.5" y="160" class="st3" width="86.7" height="34.1"/>
	</g>
</g>
<g>
	<g>
		<path class="st4" d="M74,311h272.4c3.4,0,6.3-2.8,6.3-6.3V119.4c0-3.4-2.8-6.3-6.3-6.3H74c-3.4,0-6.3,2.8-6.3,6.3v22.7v162.6
			C67.7,308.2,70.6,311,74,311z"/>
		<path class="st5" d="M74.3,310.3h262.7c3.4,0,6.3-2.8,6.3-6.3V130.2c0-3.4-2.8-6.3-6.3-6.3H74.3c-3.4,0-6.3,2.8-6.3,6.3V304
			C68,307.4,70.8,310.3,74.3,310.3z"/>
		<line class="st6" x1="351.3" y1="140" x2="67.9" y2="140"/>
		<path class="st7" d="M74,311h272.4c3.4,0,6.3-2.8,6.3-6.3V119.4c0-3.4-2.8-6.3-6.3-6.3H74c-3.4,0-6.3,2.8-6.3,6.3v22.7v162.6
			C67.7,308.2,70.6,311,74,311z"/>
		<g>
			<circle class="st8" cx="87.8" cy="127.3" r="5.8"/>
			<circle class="st8" cx="111" cy="127.3" r="5.8"/>
			<circle class="st8" cx="134.2" cy="127.3" r="5.8"/>
		</g>
		<rect x="80.3" y="152.2" class="st9" width="34.6" height="145.6"/>
		<rect x="121.5" y="152.2" class="st9" width="211" height="12.6"/>
		<g>
			<circle class="st9" cx="139.4" cy="179.6" r="4"/>
			<circle class="st9" cx="139.4" cy="192.7" r="4"/>
			<circle class="st9" cx="139.4" cy="205.8" r="4"/>
			<circle class="st9" cx="139.4" cy="219" r="4"/>
			<circle class="st9" cx="139.4" cy="232.1" r="4"/>
			<rect x="149.1" y="176" class="st9" width="39.2" height="6.4"/>
			<rect x="224.3" y="176" class="st9" width="24.5" height="6.4"/>
			<rect x="254.1" y="176" class="st9" width="39" height="6.4"/>
			<rect x="149.1" y="189.9" class="st9" width="80.7" height="6.4"/>
			<rect x="234.9" y="189.9" class="st9" width="74.3" height="6.4"/>
			<rect x="149.1" y="202.6" class="st9" width="29.6" height="6.4"/>
			<rect x="183.4" y="202.6" class="st9" width="92.8" height="6.4"/>
			<rect x="149.1" y="216.1" class="st9" width="86.9" height="6.4"/>
			<rect x="241.1" y="216.1" class="st9" width="9.6" height="6.4"/>
			<rect x="149.1" y="228.8" class="st9" width="106.2" height="6.4"/>
			<rect x="260.4" y="228.8" class="st9" width="16.7" height="6.4"/>
			<rect x="282.4" y="228.8" class="st9" width="16.7" height="6.4"/>
			<circle class="st9" cx="139.4" cy="245.9" r="4"/>
			<circle class="st9" cx="139.4" cy="259.1" r="4"/>
			<rect x="149.1" y="243" class="st9" width="37.2" height="6.4"/>
			<rect x="191.4" y="243" class="st9" width="101.3" height="6.4"/>
			<rect x="149.1" y="255.8" class="st9" width="24.1" height="6.4"/>
			<rect x="178.2" y="255.8" class="st9" width="64" height="6.4"/>
			<circle class="st9" cx="139.4" cy="271.9" r="4"/>
			<rect x="149.1" y="268.6" class="st9" width="40.6" height="6.4"/>
			<rect x="224.5" y="268.6" class="st9" width="40.6" height="6.4"/>
		</g>
	</g>
	<g>
		<circle class="st10" cx="87.3" cy="262.3" r="50.6"/>
		<circle class="st11" cx="83.7" cy="265.6" r="46.2"/>
		<polyline class="st12" points="109.5,249.5 88,275.4 71.5,260.1 		"/>
		<circle class="st13" cx="87.3" cy="262.3" r="50.6"/>
	</g>
</g>
</svg>
