<?xml version="1.0" encoding="utf-8"?>
<!-- Generator: Adobe Illustrator 22.1.0, SVG Export Plug-In . SVG Version: 6.00 Build 0)  -->
<svg version="1.1" xmlns="http://www.w3.org/2000/svg" xmlns:xlink="http://www.w3.org/1999/xlink" x="0px" y="0px"
	 viewBox="0 0 600 340" style="enable-background:new 0 0 600 340;" xml:space="preserve">
<style type="text/css">
	.st0{fill:#DBDBDB;}
	.st1{fill:#F0F0F0;}
	.st2{fill:#FFFFFF;stroke:#53BCE6;stroke-width:4.5;stroke-linecap:round;stroke-linejoin:round;stroke-miterlimit:10;}
	.st3{fill:#D5EEF7;}
	.st4{fill:none;stroke:#53BCE6;stroke-width:4.5;stroke-linecap:round;stroke-linejoin:round;stroke-miterlimit:10;}
	.st5{fill:#FFFFFF;stroke:#53BCE6;stroke-width:4.3112;stroke-linecap:round;stroke-linejoin:round;stroke-miterlimit:10;}
	.st6{display:none;}
</style>
<g id="Layer_4">
	<path class="st0" d="M95.5,245.4H38.3c-3.1,0-5.6,2.6-5.6,5.7v57c0,3.1,2.5,5.7,5.6,5.7h57.2c3.1,0,5.6-2.6,5.6-5.7v-57
		C101.1,247.9,98.6,245.4,95.5,245.4z"/>
	<path class="st0" d="M550.1,245.4h-57.2c-3.1,0-5.6,2.6-5.6,5.7v57c0,3.1,2.5,5.7,5.6,5.7h57.2c3.1,0,5.6-2.6,5.6-5.7v-57
		C555.7,247.9,553.2,245.4,550.1,245.4z"/>
	<path class="st0" d="M542.6,72.4h-42c-2.3,0-4.1,1.9-4.1,4.2v41.9c0,2.3,1.8,4.2,4.1,4.2h42c2.3,0,4.1-1.9,4.1-4.2V76.6
		C546.7,74.3,544.8,72.4,542.6,72.4z"/>
	<path class="st1" d="M499.5,148.7h-57.2c-3.1,0-5.6,2.6-5.6,5.7v57c0,3.1,2.5,5.7,5.6,5.7h57.2c3.1,0,5.6-2.6,5.6-5.7v-57
		C505.1,151.3,502.6,148.7,499.5,148.7z"/>
	<path class="st0" d="M202.8,64h-57.2c-3.1,0-5.6,2.6-5.6,5.7v57c0,3.1,2.5,5.7,5.6,5.7h57.2c3.1,0,5.6-2.6,5.6-5.7v-57
		C208.4,66.6,205.9,64,202.8,64z"/>
	<path class="st0" d="M388.1,148.7h-57.2c-3.1,0-5.6,2.6-5.6,5.7v57c0,3.1,2.5,5.7,5.6,5.7h57.2c3.1,0,5.6-2.6,5.6-5.7v-57
		C393.7,151.3,391.2,148.7,388.1,148.7z"/>
	<path class="st1" d="M257.5,148.7h-57.2c-3.1,0-5.6,2.6-5.6,5.7v57c0,3.1,2.5,5.7,5.6,5.7h57.2c3.1,0,5.6-2.6,5.6-5.7v-57
		C263.1,151.3,260.6,148.7,257.5,148.7z"/>
	<path class="st1" d="M138.9,157.3H96.1c-2.3,0-4.2,1.9-4.2,4.3v42.6c0,2.3,1.9,4.3,4.2,4.3h42.8c2.3,0,4.2-1.9,4.2-4.3v-42.6
		C143.1,159.2,141.2,157.3,138.9,157.3z"/>
	<path class="st1" d="M445.5,64h-57.2c-3.1,0-5.6,2.6-5.6,5.7v57c0,3.1,2.5,5.7,5.6,5.7h57.2c3.1,0,5.6-2.6,5.6-5.7v-57
		C451.1,66.6,448.6,64,445.5,64z"/>
	<path class="st1" d="M88.3,72.7H45.5c-2.3,0-4.2,1.9-4.2,4.3v42.6c0,2.3,1.9,4.3,4.2,4.3h42.8c2.3,0,4.2-1.9,4.2-4.3V76.9
		C92.4,74.6,90.6,72.7,88.3,72.7z"/>
	<g>
		<g>
			<path class="st2" d="M256.4,213h87.1c3.6,0,6.6-3,6.6-6.7v-86.8c0-3.7-3-6.7-6.6-6.7h-87.1c-3.6,0-6.6,3-6.6,6.7v24.3v62.5
				C249.8,209.9,252.8,213,256.4,213z"/>
			<path class="st3" d="M256.7,212.2h78c3.7,0,6.7-3,6.7-6.7V130c0-3.7-3-6.7-6.7-6.7h-78c-3.7,0-6.7,3-6.7,6.7v75.5
				C250.1,209.2,253.1,212.2,256.7,212.2z"/>
			<path class="st4" d="M256.4,213h87.1c3.6,0,6.6-3,6.6-6.7v-86.8c0-3.7-3-6.7-6.6-6.7h-87.1c-3.6,0-6.6,3-6.6,6.7v24.3v62.5
				C249.8,209.9,252.8,213,256.4,213z"/>
		</g>
		<g>
			<path class="st5" d="M156.7,313.2h87.1c3.6,0,6.6-3,6.6-6.7v-86.8c0-3.7-3-6.7-6.6-6.7h-87.1c-3.6,0-6.6,3-6.6,6.7V244v62.5
				C150.2,310.1,153.1,313.2,156.7,313.2z"/>
			<path class="st3" d="M157.1,312.4h78c3.7,0,6.7-3,6.7-6.7v-75.5c0-3.7-3-6.7-6.7-6.7h-78c-3.7,0-6.7,3-6.7,6.7v75.5
				C150.4,309.4,153.4,312.4,157.1,312.4z"/>
			<path class="st4" d="M156.7,313.2h87.1c3.6,0,6.6-3,6.6-6.7v-86.8c0-3.7-3-6.7-6.6-6.7h-87.1c-3.6,0-6.6,3-6.6,6.7V244v62.5
				C150.2,310.1,153.1,313.2,156.7,313.2z"/>
		</g>
		<g>
			<path class="st5" d="M356,313.2h87.1c3.6,0,6.6-3,6.6-6.7v-86.8c0-3.7-3-6.7-6.6-6.7H356c-3.6,0-6.6,3-6.6,6.7V244v62.5
				C349.5,310.1,352.4,313.2,356,313.2z"/>
			<path class="st3" d="M356.4,312.4h78c3.7,0,6.7-3,6.7-6.7v-75.5c0-3.7-3-6.7-6.7-6.7h-78c-3.7,0-6.7,3-6.7,6.7v75.5
				C349.7,309.4,352.7,312.4,356.4,312.4z"/>
			<path class="st4" d="M356,313.2h87.1c3.6,0,6.6-3,6.6-6.7v-86.8c0-3.7-3-6.7-6.6-6.7H356c-3.6,0-6.6,3-6.6,6.7V244v62.5
				C349.5,310.1,352.4,313.2,356,313.2z"/>
		</g>
		<g>
			<path class="st5" d="M256.4,313.2h87.1c3.6,0,6.6-3,6.6-6.7v-86.8c0-3.7-3-6.7-6.6-6.7h-87.1c-3.6,0-6.6,3-6.6,6.7V244v62.5
				C249.8,310.1,252.8,313.2,256.4,313.2z"/>
			<path class="st3" d="M256.7,312.4h78c3.7,0,6.7-3,6.7-6.7v-75.5c0-3.7-3-6.7-6.7-6.7h-78c-3.7,0-6.7,3-6.7,6.7v75.5
				C250.1,309.4,253.1,312.4,256.7,312.4z"/>
			<path class="st4" d="M256.4,313.2h87.1c3.6,0,6.6-3,6.6-6.7v-86.8c0-3.7-3-6.7-6.6-6.7h-87.1c-3.6,0-6.6,3-6.6,6.7V244v62.5
				C249.8,310.1,252.8,313.2,256.4,313.2z"/>
		</g>
	</g>
</g>
<g id="Layer_5" class="st6">
</g>
</svg>
