<?xml version="1.0" encoding="utf-8"?>
<!-- Generator: Adobe Illustrator 22.1.0, SVG Export Plug-In . SVG Version: 6.00 Build 0)  -->
<svg version="1.1" id="Layer_1" xmlns="http://www.w3.org/2000/svg" xmlns:xlink="http://www.w3.org/1999/xlink" x="0px" y="0px"
	 viewBox="0 0 600 340" style="enable-background:new 0 0 600 340;" xml:space="preserve">
<style type="text/css">
	.st0{fill:#F0F0F0;}
	.st1{fill:#CFD0D2;}
	.st2{fill:#E9E9E9;}
	.st3{fill:#DBDBDB;}
	.st4{opacity:0.5;}
	.st5{clip-path:url(#SVGID_2_);fill:#C7C7C7;}
	.st6{fill:#FFFFFF;}
	.st7{fill:#53BCE6;}
	.st8{fill:#D5EEF7;}
	.st9{fill:#96D7EF;}
</style>
<g>
	<path class="st0" d="M129.1,315.3h429.1c4.4,0,7.9-3.6,7.9-7.9V32.2c0-4.4-3.6-7.9-7.9-7.9H129.1c-4.4,0-7.9,3.6-7.9,7.9v275.2
		C121.2,311.8,124.7,315.3,129.1,315.3z"/>
	<path class="st1" d="M566.1,51.6V32.2c0-4.4-3.6-7.9-7.9-7.9H129.1c-4.4,0-7.9,3.6-7.9,7.9v19.3H566.1z"/>
	<g>
		<circle class="st2" cx="137.2" cy="39.3" r="5.3"/>
		<circle class="st2" cx="152.9" cy="39.3" r="5.3"/>
		<circle class="st2" cx="168.6" cy="39.3" r="5.3"/>
	</g>
</g>
<rect x="136.4" y="63.3" class="st3" width="412" height="72.2"/>
<g>
	<rect x="136.4" y="159.1" class="st3" width="412" height="9.8"/>
	<rect x="136.4" y="142.9" class="st3" width="412" height="9.8"/>
	<rect x="136.4" y="175.8" class="st3" width="412" height="9.8"/>
	<rect x="136.4" y="193" class="st3" width="412" height="9.8"/>
	<rect x="136.4" y="209.7" class="st3" width="195.3" height="9.8"/>
	<rect x="352.7" y="209.7" class="st3" width="195.3" height="89"/>
	<rect x="136.4" y="225.9" class="st3" width="195.3" height="9.8"/>
	<rect x="136.4" y="241.8" class="st3" width="195.3" height="9.8"/>
	<rect x="136.4" y="258" class="st3" width="195.3" height="9.8"/>
	<rect x="136.4" y="273" class="st3" width="195.3" height="9.8"/>
	<rect x="136.4" y="289.7" class="st3" width="195.3" height="9.8"/>
</g>
<g class="st4">
	<defs>
		<path id="SVGID_1_" class="st4" d="M129.1,315.3h429.1c4.4,0,7.9-3.6,7.9-7.9V32.2c0-4.4-3.6-7.9-7.9-7.9H129.1
			c-4.4,0-7.9,3.6-7.9,7.9v275.2C121.2,311.8,124.7,315.3,129.1,315.3z"/>
	</defs>
	<clipPath id="SVGID_2_">
		<use xlink:href="#SVGID_1_"  style="overflow:visible;"/>
	</clipPath>
	<path class="st5" d="M232,109.1c-15.8,0-28-9.1-41-18.8c-15.5-11.6-29.8-20.7-56.2-20.7c-26.4,0-45.6,16.1-61.1,27.7
		c-13,9.7-26.8,11.8-42.6,11.8c-4.1,0-7.4,3.2-7.4,7.2c0,60.1,7.8,100.2,25.2,130c17.4,29.7,43.1,48,79,68.1c1.1,0.6,2.4,1,3.7,1
		s2.6-0.3,3.7-1c35.9-20,61.6-38.4,79-68.1c17.4-29.8,25.2-69.9,25.2-130C239.4,112.4,236.1,109.1,232,109.1z"/>
</g>
<g>
	<g>
		<g>
			<path class="st6" d="M220.1,116.1c-15.6,0-27.4-9.1-39.9-18.8c-14.4-11.1-30.7-23.7-54.9-23.7S84.7,86.2,70.3,97.3
				c-12.5,9.7-24.4,18.8-39.9,18.8c-2.8,0-5,2.2-5,5c0,58.3,7.3,97.1,23.5,125.9c16.2,28.5,40.2,46.3,73.8,65.7
				c0.8,0.4,1.6,0.7,2.5,0.7s1.7-0.2,2.5-0.7c33.6-19.4,57.7-37.1,73.8-65.7c16.3-28.8,23.5-67.6,23.5-125.9
				C225.1,118.3,222.9,116.1,220.1,116.1z"/>
			<path class="st7" d="M125.2,314.6c-1.1,0-2.2-0.3-3.2-0.8c-33.8-19.5-58-37.4-74.3-66.2c-16.4-29-23.7-68-23.7-126.5
				c0-3.5,2.8-6.3,6.3-6.3c15.1,0,26.8-9,39.1-18.5C84,85,100.5,72.3,125.2,72.3c24.7,0,41.2,12.7,55.7,23.9
				c12.3,9.5,24,18.5,39.1,18.5c3.5,0,6.3,2.8,6.3,6.3c0,58.5-7.3,97.6-23.7,126.5c-16.3,28.8-40.5,46.7-74.3,66.2
				C127.4,314.3,126.3,314.6,125.2,314.6z M125.2,74.9c-23.8,0-39.9,12.4-54.1,23.4c-12.7,9.8-24.7,19.1-40.7,19.1
				c-2,0-3.7,1.6-3.7,3.7c0,58.1,7.2,96.7,23.4,125.2c16,28.3,39.9,45.9,73.3,65.2c1.1,0.6,2.6,0.6,3.7,0
				c33.4-19.3,57.3-36.9,73.3-65.2c16.2-28.5,23.4-67.2,23.4-125.2c0-2-1.6-3.7-3.7-3.7c-16,0-28-9.3-40.7-19
				C165.1,87.4,149,74.9,125.2,74.9z"/>
		</g>
	</g>
	<g>
		<path class="st8" d="M215.5,125c-15.1,0-26.5-8.7-38.7-17.8c-13.9-10.5-29.7-22.4-53.2-22.4s-39.3,11.9-53.2,22.4
			C58.3,116.3,46.9,125,31.8,125c-2.7,0-4.8,2.1-4.8,4.7c0,55.3,7,92.1,22.8,119.4c15.7,27.1,39,43.9,71.5,62.3
			c0.7,0.4,1.6,0.6,2.4,0.6s1.7-0.2,2.4-0.6c32.5-18.4,55.8-35.2,71.5-62.3c15.8-27.3,22.8-64.1,22.8-119.4
			C220.3,127.1,218.1,125,215.5,125z"/>
	</g>
	<g>
		<path class="st7" d="M125.2,315.3c-1.2,0-2.4-0.3-3.5-0.9c-33.9-19.6-58.2-37.5-74.6-66.5c-16.5-29.1-23.8-68.2-23.8-126.9
			c0-3.9,3.2-7,7-7c14.9,0,26.4-8.9,38.7-18.3c14.7-11.3,31.3-24.1,56.2-24.1c24.9,0,41.5,12.8,56.2,24.1
			c12.2,9.4,23.8,18.4,38.7,18.4c3.9,0,7,3.2,7,7c0,58.7-7.3,97.8-23.8,126.9c-16.4,29-40.7,46.9-74.6,66.5
			C127.7,315,126.5,315.3,125.2,315.3z M125.2,75.7c-23.5,0-39.6,12.3-53.7,23.2c-12.8,9.9-24.9,19.2-41.2,19.2c-1.6,0-3,1.3-3,3
			c0,57.9,7.2,96.4,23.3,124.9c15.9,28.1,39.8,45.7,73.1,64.9c0.9,0.5,2.1,0.5,3,0c33.3-19.2,57.1-36.8,73.1-64.9
			c16.1-28.4,23.3-66.9,23.3-124.9c0-1.6-1.3-3-3-3c-16.3,0-28.4-9.3-41.2-19.2C164.8,88,148.8,75.7,125.2,75.7z"/>
	</g>
	<g>
		<path class="st7" d="M125.2,300.5c-1.1,0-2.2-0.3-3.1-0.8c-15-8.7-25.7-15.8-34.7-23c-0.8-0.6-0.9-1.8-0.3-2.6
			c0.6-0.8,1.8-0.9,2.6-0.3c8.9,7.1,19.4,14.1,34.3,22.7c0.8,0.4,1.8,0.4,2.5,0c18.2-10.5,36.9-22.4,51-38.6
			c0.7-0.8,1.8-0.8,2.6-0.2c0.8,0.7,0.8,1.8,0.2,2.6c-14.5,16.6-33.6,28.7-52,39.3C127.4,300.3,126.3,300.5,125.2,300.5z
			 M42.8,198.2c-0.9,0-1.6-0.6-1.8-1.5c-3.6-18.3-5.3-40.2-5.3-66.8c0-3.4,2.8-6.2,6.2-6.2c13.1,0,23.2-7.8,33.9-16.1
			c12.9-9.9,27.5-21.2,49.4-21.2c10.2,0,19.8,2.5,29.4,7.5c7.5,4,13.8,8.9,20,13.6c0.8,0.6,1,1.8,0.3,2.6c-0.6,0.8-1.8,1-2.6,0.3
			l0,0c-6-4.7-12.3-9.5-19.5-13.3c-9-4.8-18.1-7.1-27.6-7.1c-20.7,0-34.7,10.8-47.1,20.4c-11.3,8.7-21.9,16.9-36.2,16.9
			c-1.4,0-2.5,1.1-2.5,2.5c0,26.4,1.7,48.1,5.2,66.1c0.2,1-0.5,2-1.5,2.2C43,198.2,42.9,198.2,42.8,198.2z M210.6,178.4
			c-0.1,0-0.1,0-0.2,0c-1-0.1-1.7-1-1.6-2c1.5-13.7,2.3-28.9,2.3-46.5c0-1.4-1.1-2.5-2.5-2.5c-3.3,0-6.5-0.4-9.7-1.3
			c-1-0.3-1.6-1.3-1.3-2.3c0.3-1,1.3-1.6,2.3-1.3c2.9,0.8,5.8,1.2,8.8,1.2c3.4,0,6.2,2.8,6.2,6.2c0,17.8-0.8,33.1-2.3,46.9
			C212.4,177.7,211.6,178.4,210.6,178.4z"/>
	</g>
	<path class="st9" d="M122.5,230.6c-0.4,0-0.7,0-1.1-0.1c-4.8-0.9-12.9-8.4-17.2-12.7c-3.6-3.6-12.3-12.8-15.6-20.6
		c-1.1-2.6,0.2-5.6,2.7-6.6c2.6-1.1,5.6,0.2,6.6,2.7c3.6,8.6,18.5,22.9,24.1,26.6c2.7-2.7,8.6-10.3,15.8-22.7
		c8.5-14.7,14.7-29.2,17.1-39.7c0.6-2.7,3.3-4.5,6.1-3.9c2.7,0.6,4.5,3.3,3.9,6.1c-3.9,17.5-15.2,37.6-19.9,45.4
		c-4,6.7-8.2,12.9-11.7,17.3C128.6,228.2,125.5,230.6,122.5,230.6z M123.4,220.5C123.4,220.5,123.4,220.5,123.4,220.5L123.4,220.5z"
		/>
</g>
</svg>
