<svg version="1.1" id="Layer_2" xmlns="http://www.w3.org/2000/svg" x="0" y="0" viewBox="0 0 600 340" xml:space="preserve"><style>.st0{fill:#f0f0f0}.st1{fill:#cfd0d2}.st2{fill:#dbdbdb}.st8,.st9{fill:#96d7ef;stroke:#53bce6;stroke-width:3.3297;stroke-miterlimit:10}.st9{fill:none;stroke:#96d7ef;stroke-width:9.058;stroke-linecap:round;stroke-linejoin:round}</style><path class="st0" d="M243.5 314.9h291.6c7.4 0 13.4-6 13.4-13.4v-67.9c0-7.4-6-13.4-13.4-13.4H243.5c-7.4 0-13.4 6-13.4 13.4v67.9c0 7.4 6 13.4 13.4 13.4z"/><circle class="st1" cx="282.9" cy="262.8" r="11.6"/><circle class="st1" cx="317.9" cy="262.8" r="11.6"/><circle class="st1" cx="354.9" cy="262.8" r="11.6"/><path class="st1" d="M374.4 314.6v-20.7c0-4.7-3.9-8.6-8.6-8.6h-99.9c-4.7 0-8.6 3.9-8.6 8.6v20.7h117.1z"/><circle class="st2" cx="409" cy="251.6" r="6.9"/><circle class="st2" cx="432" cy="251.6" r="6.9"/><circle class="st2" cx="454.9" cy="251.6" r="6.9"/><circle class="st2" cx="477.8" cy="251.6" r="6.9"/><circle class="st2" cx="500.8" cy="251.6" r="6.9"/><circle class="st2" cx="408.5" cy="288.3" r="6.9"/><circle class="st2" cx="431.7" cy="288.3" r="6.9"/><circle class="st2" cx="454.9" cy="288.3" r="6.9"/><circle class="st2" cx="478.1" cy="288.3" r="6.9"/><circle class="st2" cx="501.3" cy="288.3" r="6.9"/><g><circle class="st2" cx="396.7" cy="270.3" r="6.9"/><circle class="st2" cx="420" cy="270.3" r="6.9"/><circle class="st2" cx="443.3" cy="270.3" r="6.9"/><circle class="st2" cx="466.5" cy="270.3" r="6.9"/><circle class="st2" cx="489.8" cy="270.3" r="6.9"/><circle class="st2" cx="513.1" cy="270.3" r="6.9"/></g><g><path class="st0" d="M243.5 216.6h291.6c7.4 0 13.4-6 13.4-13.4v-67.9c0-7.4-6-13.4-13.4-13.4H243.5c-7.4 0-13.4 6-13.4 13.4v67.9c0 7.4 6 13.4 13.4 13.4z"/><circle class="st1" cx="282.9" cy="164.6" r="11.6"/><circle class="st1" cx="317.9" cy="164.6" r="11.6"/><circle class="st1" cx="354.9" cy="164.6" r="11.6"/><path class="st1" d="M374.4 216.3v-20.7c0-4.7-3.9-8.6-8.6-8.6h-99.9c-4.7 0-8.6 3.9-8.6 8.6v20.7h117.1z"/><circle class="st2" cx="409" cy="153.4" r="6.9"/><circle class="st2" cx="432" cy="153.4" r="6.9"/><circle class="st2" cx="454.9" cy="153.4" r="6.9"/><circle class="st2" cx="477.8" cy="153.4" r="6.9"/><circle class="st2" cx="500.8" cy="153.4" r="6.9"/><circle class="st2" cx="408.5" cy="190" r="6.9"/><circle class="st2" cx="431.7" cy="190" r="6.9"/><circle class="st2" cx="454.9" cy="190" r="6.9"/><circle class="st2" cx="478.1" cy="190" r="6.9"/><circle class="st2" cx="501.3" cy="190" r="6.9"/><g><circle class="st2" cx="396.7" cy="172" r="6.9"/><circle class="st2" cx="420" cy="172" r="6.9"/><circle class="st2" cx="443.3" cy="172" r="6.9"/><circle class="st2" cx="466.5" cy="172" r="6.9"/><circle class="st2" cx="489.8" cy="172" r="6.9"/><circle class="st2" cx="513.1" cy="172" r="6.9"/></g></g><g><path class="st0" d="M243.5 118.3h291.6c7.4 0 13.4-6 13.4-13.4V37.1c0-7.4-6-13.4-13.4-13.4H243.5c-7.4 0-13.4 6-13.4 13.4V105c0 7.3 6 13.3 13.4 13.3z"/><circle class="st1" cx="282.9" cy="66.3" r="11.6"/><circle class="st1" cx="317.9" cy="66.3" r="11.6"/><circle class="st1" cx="354.9" cy="66.3" r="11.6"/><path class="st1" d="M374.4 118.1V97.4c0-4.7-3.9-8.6-8.6-8.6h-99.9c-4.7 0-8.6 3.9-8.6 8.6v20.7h117.1z"/><circle class="st2" cx="409" cy="55.1" r="6.9"/><circle class="st2" cx="432" cy="55.1" r="6.9"/><circle class="st2" cx="454.9" cy="55.1" r="6.9"/><circle class="st2" cx="477.8" cy="55.1" r="6.9"/><circle class="st2" cx="500.8" cy="55.1" r="6.9"/><circle class="st2" cx="408.5" cy="91.7" r="6.9"/><circle class="st2" cx="431.7" cy="91.7" r="6.9"/><circle class="st2" cx="454.9" cy="91.7" r="6.9"/><circle class="st2" cx="478.1" cy="91.7" r="6.9"/><circle class="st2" cx="501.3" cy="91.7" r="6.9"/><g><circle class="st2" cx="396.7" cy="73.8" r="6.9"/><circle class="st2" cx="420" cy="73.8" r="6.9"/><circle class="st2" cx="443.3" cy="73.8" r="6.9"/><circle class="st2" cx="466.5" cy="73.8" r="6.9"/><circle class="st2" cx="489.8" cy="73.8" r="6.9"/><circle class="st2" cx="513.1" cy="73.8" r="6.9"/></g></g><path d="M324.2 101.8h-94.1v176.6H58.6v27.3c0 4.9 4 8.8 8.8 8.8h256.8c4.9 0 8.8-4 8.8-8.8v-195c.1-5-3.9-8.9-8.8-8.9z" opacity=".5" fill="#c7c7c7"/><g><path d="M59.1 312.3h256.8c3.7 0 6.7-3 6.7-6.7V120c0-3.7-3-6.7-6.7-6.7H59.1c-3.7 0-6.7 3-6.7 6.7v185.6c0 3.7 3 6.7 6.7 6.7z" fill="#fff" stroke="#53bce6" stroke-width="4.329" stroke-linecap="round" stroke-linejoin="round" stroke-miterlimit="10"/><path d="M59.4 311.5h246.5c3.7 0 6.7-3 6.7-6.7V131.5c0-3.7-3-6.7-6.7-6.7H59.4c-3.7 0-6.7 3-6.7 6.7v173.4c0 3.6 3 6.6 6.7 6.6z" fill="#d5eef7"/><path fill="none" stroke="#53bce6" stroke-width="4.329" stroke-linecap="round" stroke-miterlimit="10" d="M321.1 141.9H52.6"/><path d="M59.1 312.3h256.8c3.7 0 6.7-3 6.7-6.7V120c0-3.7-3-6.7-6.7-6.7H59.1c-3.7 0-6.7 3-6.7 6.7v185.6c0 3.7 3 6.7 6.7 6.7z" fill="none" stroke="#53bce6" stroke-width="4.329" stroke-linecap="round" stroke-linejoin="round" stroke-miterlimit="10"/><circle class="st8" cx="73.8" cy="128.4" r="6.1"/><circle class="st8" cx="98.4" cy="128.4" r="6.1"/><circle class="st8" cx="123.1" cy="128.4" r="6.1"/><circle class="st9" cx="141.7" cy="185.4" r="13.6"/><path class="st9" d="M157 185.4h98.9m-127.8 0H111"/><circle class="st9" cx="181" cy="225.9" r="13.6"/><path class="st9" d="M195.9 225.9h60m-90.2 0H111"/><g><circle class="st9" cx="163.8" cy="270.3" r="13.6"/><path class="st9" d="M177.4 270.3h78.5m-106.1 0H111"/></g></g></svg>