<?xml version="1.0" encoding="utf-8"?>
<!-- Generator: Adobe Illustrator 22.1.0, SVG Export Plug-In . SVG Version: 6.00 Build 0)  -->
<svg version="1.1" id="Layer_2_1_" xmlns="http://www.w3.org/2000/svg" xmlns:xlink="http://www.w3.org/1999/xlink" x="0px" y="0px"
	 viewBox="0 0 90 90" style="enable-background:new 0 0 90 90;" xml:space="preserve">
<style type="text/css">
	.st0{fill:#FFFFFF;stroke:#53BCE6;stroke-width:2.7996;stroke-linecap:round;stroke-linejoin:round;stroke-miterlimit:10;}
	.st1{fill:#D5EEF7;}
	.st2{fill:none;stroke:#53BCE6;stroke-width:2.7996;stroke-linecap:round;stroke-linejoin:round;stroke-miterlimit:10;}
	.st3{fill:none;stroke:#D5EEF7;stroke-width:2.7996;stroke-linecap:round;stroke-linejoin:round;stroke-miterlimit:10;}
</style>
<g>
	<path class="st0" d="M63,44.5C63,34.8,55.2,27,45.5,27S28,34.8,28,44.5c0,6.5,3.5,12.2,8.8,15.2v9.7v1.7c0,3.5,2.8,6.3,6.3,6.3h4.7
		c3.5,0,6.3-2.8,6.3-6.3V59.7C59.5,56.7,63,51,63,44.5z"/>
	<path class="st1" d="M56.4,47.7c0-7.9-6.4-14.4-14.4-14.4c-6,0-12,6.4-12,14.4c0,5.3,2.9,10,7.2,12.5v10.1v1.4
		c0,2.9,2.3,5.2,5.2,5.2h1.5c2.9,0,5.2-2.3,5.2-5.2V60.1C53.4,57.7,56.4,53,56.4,47.7z"/>
	<line class="st2" x1="53.5" y1="65.7" x2="37.5" y2="65.7"/>
	<g>
		<g>
			<g>
				<line class="st3" x1="66" y1="19.6" x2="60.6" y2="25.4"/>
			</g>
			<g>
				<line class="st2" x1="67.1" y1="20.6" x2="61.7" y2="26.4"/>
			</g>
		</g>
		<g>
			<g>
				<g>
					<line class="st3" x1="19.6" y1="68.2" x2="25" y2="62.4"/>
				</g>
				<g>
					<line class="st2" x1="18.5" y1="67.2" x2="23.9" y2="61.4"/>
				</g>
			</g>
		</g>
	</g>
	<g>
		<g>
			<g>
				<line class="st3" x1="12.1" y1="45.1" x2="20" y2="45"/>
			</g>
			<g>
				<line class="st2" x1="12.1" y1="43.6" x2="20" y2="43.5"/>
			</g>
		</g>
		<g>
			<g>
				<line class="st3" x1="70.3" y1="45.1" x2="78.2" y2="45"/>
			</g>
			<g>
				<line class="st2" x1="70.3" y1="43.6" x2="78.2" y2="43.5"/>
			</g>
		</g>
	</g>
	<g>
		<line class="st2" x1="45.5" y1="56.5" x2="45.5" y2="64.4"/>
	</g>
	<circle class="st2" cx="45.5" cy="53.3" r="3.1"/>
	<path class="st2" d="M63,44.5C63,34.8,55.2,27,45.5,27S28,34.8,28,44.5c0,6.5,3.5,12.2,8.8,15.2v9.7v1.7c0,3.5,2.8,6.3,6.3,6.3h4.7
		c3.5,0,6.3-2.8,6.3-6.3V59.7C59.5,56.7,63,51,63,44.5z"/>
	<g>
		<g>
			<line class="st3" x1="42.7" y1="12.9" x2="42.8" y2="20.8"/>
		</g>
		<g>
			<line class="st2" x1="44.2" y1="12.9" x2="44.3" y2="20.8"/>
		</g>
	</g>
	<g>
		<g>
			<line class="st3" x1="20.6" y1="22.2" x2="26.4" y2="27.5"/>
		</g>
		<g>
			<line class="st2" x1="21.6" y1="21.1" x2="27.5" y2="26.4"/>
		</g>
	</g>
	<g>
		<g>
			<g>
				<line class="st3" x1="62.4" y1="62.7" x2="68.3" y2="68"/>
			</g>
			<g>
				<line class="st2" x1="63.5" y1="61.6" x2="69.3" y2="66.9"/>
			</g>
		</g>
	</g>
</g>
</svg>
