<?xml version="1.0" encoding="utf-8"?>
<!-- Generator: Adobe Illustrator 22.1.0, SVG Export Plug-In . SVG Version: 6.00 Build 0)  -->
<svg version="1.1" id="Layer_1" xmlns="http://www.w3.org/2000/svg" xmlns:xlink="http://www.w3.org/1999/xlink" x="0px" y="0px"
	 viewBox="0 0 90 90" style="enable-background:new 0 0 90 90;" xml:space="preserve">
<style type="text/css">
	.st0{fill:#FFFFFF;stroke:#53BCE6;stroke-width:2.5883;stroke-linecap:round;stroke-linejoin:round;stroke-miterlimit:10;}
	.st1{fill:#D5EEF7;}
	.st2{fill:none;stroke:#53BCE6;stroke-width:3.4511;stroke-linecap:round;stroke-linejoin:round;stroke-miterlimit:10;}
	.st3{fill:none;stroke:#53BCE6;stroke-width:3.4511;stroke-miterlimit:10;}
	.st4{fill:#FFFFFF;stroke:#53BCE6;stroke-width:3.4511;stroke-linecap:round;stroke-linejoin:round;stroke-miterlimit:10;}
	.st5{fill:none;stroke:#53BCE6;stroke-width:2.5883;stroke-linecap:round;stroke-linejoin:round;stroke-miterlimit:10;}
</style>
<g>
	<path class="st0" d="M11.3,11.9v65.9c0,1.9,1.6,3.5,3.5,3.5h44.4c1.9,0,3.5-1.6,3.5-3.5V11.9c0-1.9-1.6-3.5-3.5-3.5H46.7H14.8
		C12.9,8.5,11.3,10,11.3,11.9z"/>
	<g>
		<path class="st0" d="M77.7,71.4L83,14.7c0.3-3.6-1.4-6.8-3.9-7c-2.5-0.2-4.8,2.6-5.2,6.2l-5.3,56.7L77.7,71.4z"/>
		<polyline class="st0" points="68.5,70.6 72,81.9 77.7,71.4 		"/>
	</g>
	<path class="st1" d="M12.2,16.2v61.2c0,2.5,0.2,3.1,3.1,3.1h40.3c1.7,0,3.1-1.4,3.1-3.1V16.2c0-1.7-1.4-3.1-3.1-3.1H41.9H15.3
		C11.8,13.2,12.2,14.6,12.2,16.2z"/>
</g>
<g>
	<line class="st0" x1="51.1" y1="80.5" x2="51.1" y2="8.6"/>
	<line class="st2" x1="15.7" y1="18.9" x2="6.9" y2="18.9"/>
	<line class="st2" x1="15.7" y1="27.7" x2="6.9" y2="27.7"/>
	<line class="st2" x1="15.7" y1="36.4" x2="6.9" y2="36.4"/>
	<line class="st2" x1="15.7" y1="45.1" x2="6.9" y2="45.1"/>
	<line class="st2" x1="15.7" y1="53.9" x2="6.9" y2="53.9"/>
	<line class="st2" x1="15.7" y1="62.6" x2="6.9" y2="62.6"/>
	<line class="st2" x1="15.7" y1="71.4" x2="6.9" y2="71.4"/>
</g>
<g>
	<path class="st1" d="M74,69.2l5.3-55.3c0.2-1.7-0.7-3.1-1.8-3.2s-2.2,1.2-2.4,2.8l-5.3,55.3L74,69.2z"/>
	<polyline class="st1" points="69.8,70.9 71.4,76 74,71.2 	"/>
</g>
<line class="st3" x1="82.1" y1="22.2" x2="73.1" y2="21.4"/>
<line class="st4" x1="77.3" y1="70.7" x2="69.7" y2="69.3"/>
<path class="st5" d="M11.3,11.9v65.9c0,1.9,1.6,3.5,3.5,3.5h44.4c1.9,0,3.5-1.6,3.5-3.5V11.9c0-1.9-1.6-3.5-3.5-3.5H46.7H14.8
	C12.9,8.5,11.3,10,11.3,11.9z"/>
</svg>
